<?xml version="1.0" encoding="UTF-8" standalone="no"?>
<svg width="75px" height="75px" viewBox="0 0 75 75" version="1.1" xmlns="http://www.w3.org/2000/svg" xmlns:xlink="http://www.w3.org/1999/xlink" xmlns:sketch="http://www.bohemiancoding.com/sketch/ns">
    <title>download_selected</title>
    <description>Created with Sketch (http://www.bohemiancoding.com/sketch)</description>
    <defs></defs>
    <g id="Page-1" stroke="none" stroke-width="1" fill="none" fill-rule="evenodd" sketch:type="MSPage">
        <g id="download" sketch:type="MSLayerGroup" transform="translate(13.000000, 13.000000)">
            <rect d="M12,35.43 L12,40 L36,40 L36,35.43 L12,35.43 Z M12,35.43" id="Rectangle" fill="#000000" sketch:type="MSShapeGroup" x="12" y="35.43" width="24" height="4.57"></rect>
            <path d="M28,26.285 L28,8 L20,8 L20,26.285 L16,26.285 L24.012,35.43 L32,26.285 L28,26.285 Z M28,26.285" id="Shape" fill="#000000" sketch:type="MSShapeGroup"></path>
            <circle d="M24,48 C37.2548347,48 48,37.2548347 48,24 C48,10.7451653 37.2548347,0 24,0 C10.7451653,0 0,10.7451653 0,24 C0,37.2548347 10.7451653,48 24,48 Z M24,48" id="Oval-1-copy" stroke="#000000" stroke-width="6" sketch:type="MSShapeGroup" cx="24" cy="24" r="24"></circle>
        </g>
    </g>
</svg>