<?xml version="1.0" encoding="UTF-8" standalone="no"?>
<svg width="32px" height="29px" viewBox="0 0 32 29" version="1.1" xmlns="http://www.w3.org/2000/svg" xmlns:xlink="http://www.w3.org/1999/xlink" xmlns:sketch="http://www.bohemiancoding.com/sketch/ns">
    <title>eye</title>
    <description>Created with Sketch (http://www.bohemiancoding.com/sketch)</description>
    <defs></defs>
    <g id="Page-1" stroke="none" stroke-width="1" fill="none" fill-rule="evenodd" sketch:type="MSPage">
        <g id="eye" sketch:type="MSLayerGroup" transform="translate(0.000000, 4.000000)">
            <g id="Layer_1"></g>
            <g id="Group" fill="#4E4E50" sketch:type="MSShapeGroup">
                <g>
                    <path d="M16,0 C7.164,0 0,11.844 0,11.844 C0,11.844 7.164,24 16,24 C24.836,24 32,11.844 32,11.844 C32,11.844 24.836,0 16,0 L16,0 L16,0 L16,0 Z M16,20 C11.582,20 8,16.418 8,12 C8,7.582 11.582,4 16,4 C20.418,4 24,7.582 24,12 C24,16.418 20.418,20 16,20 L16,20 L16,20 L16,20 Z M16,20" id="Shape"></path>
                    <circle d="M16,16.016 C18.2091391,16.016 20,14.2251391 20,12.016 C20,9.80686089 18.2091391,8.016 16,8.016 C13.7908609,8.016 12,9.80686089 12,12.016 C12,14.2251391 13.7908609,16.016 16,16.016 Z M16,16.016" id="Oval" cx="16" cy="12.016" r="4"></circle>
                </g>
            </g>
        </g>
        <path d="M5.44893253,25.5510674 L27.5042286,3.49577114" id="Line" stroke="#979797" stroke-width="4" stroke-linecap="square" sketch:type="MSShapeGroup"></path>
    </g>
</svg>