<?xml version="1.0" encoding="UTF-8" standalone="no"?>
<svg width="75px" height="75px" viewBox="0 0 75 75" version="1.1" xmlns="http://www.w3.org/2000/svg" xmlns:xlink="http://www.w3.org/1999/xlink" xmlns:sketch="http://www.bohemiancoding.com/sketch/ns">
    <title>Shape + Path</title>
    <description>Created with Sketch (http://www.bohemiancoding.com/sketch)</description>
    <defs></defs>
    <g id="Stacked-Area" stroke="none" stroke-width="1" fill="none" fill-rule="evenodd" sketch:type="MSPage">
        <g id="Graph" sketch:type="MSLayerGroup" transform="translate(-544.000000, -103.000000)" stroke-linecap="square" stroke="#FFFFFF">
            <g id="Group" transform="translate(0.000000, 174.000000)" sketch:type="MSShapeGroup">
                <g id="Y-axis-copy-2" transform="translate(373.000000, 176.000000) rotate(-90.000000) translate(-373.000000, -176.000000) translate(197.500000, -196.500000)">
                    <g id="Major" transform="translate(40.000000, -0.000000)">
                        <path d="M308.5,46.5625 L308.5,698.4375" id="Line"></path>
                    </g>
                </g>
            </g>
        </g>
        <g id="Oval-19-+-Oval-19-copy-+-plus_alt" sketch:type="MSLayerGroup" transform="translate(-50.000000, 13.000000)">
            <g id="Shape-+-Path" transform="translate(63.000000, 0.000000)" sketch:type="MSShapeGroup">
                <path d="M0,24 C0,37.254 10.746,48 24,48 C37.254,48 48,37.254 48,24 C48,10.746 37.254,0 24,0 C10.746,0 0,10.746 0,24 Z M0,24" id="Shape" stroke="#898989" stroke-width="6"></path>
                <path d="M40,25.969 L40,21.969 L35.219,19.977 C35.086,19.602 34.946,19.239 34.774,18.883 L36.704,14.078 L33.875,11.25 L29.113,13.211 C28.75,13.035 28.379,12.887 27.996,12.75 L25.969,8 L21.969,8 L19.992,12.734 C19.594,12.875 19.211,13.023 18.832,13.203 L14.078,11.293 L11.25,14.121 L13.188,18.832 C13,19.219 12.848,19.613 12.703,20.02 L8,22.031 L8,26.031 L12.707,27.992 C12.852,28.398 13.008,28.793 13.195,29.18 L11.293,33.922 L14.121,36.75 L18.844,34.805 C19.223,34.985 19.61,35.129 20.008,35.266 L22.031,40 L26.031,40 L28.011,35.242 C28.39,35.101 28.765,34.953 29.124,34.781 L33.921,36.703 L36.749,33.875 L34.78,29.102 C34.948,28.743 35.085,28.379 35.218,28.008 L40,25.969 L40,25.969 L40,25.969 L40,25.969 Z M23.969,30 C20.657,30 17.969,27.312 17.969,24 C17.969,20.688 20.657,18 23.969,18 C27.281,18 29.969,20.688 29.969,24 C29.969,27.312 27.281,30 23.969,30 L23.969,30 L23.969,30 L23.969,30 Z M23.969,30" id="Shape" fill="#898989"></path>
            </g>
        </g>
    </g>
</svg>