<?xml version="1.0" encoding="UTF-8" standalone="no"?>
<svg width="75px" height="75px" viewBox="0 0 75 75" version="1.1" xmlns="http://www.w3.org/2000/svg" xmlns:xlink="http://www.w3.org/1999/xlink" xmlns:sketch="http://www.bohemiancoding.com/sketch/ns">
    <title>Oval 19 + Oval 19 copy</title>
    <description>Created with Sketch (http://www.bohemiancoding.com/sketch)</description>
    <defs></defs>
    <g id="Stacked-Area" stroke="none" stroke-width="1" fill="none" fill-rule="evenodd" sketch:type="MSPage">
        <g id="Graph" sketch:type="MSLayerGroup" transform="translate(-607.000000, -103.000000)" stroke-linecap="square" stroke="#FFFFFF">
            <g id="Group" transform="translate(0.000000, 174.000000)" sketch:type="MSShapeGroup">
                <g id="Y-axis-copy-2" transform="translate(373.000000, 176.000000) rotate(-90.000000) translate(-373.000000, -176.000000) translate(197.500000, -196.500000)">
                    <g id="Major" transform="translate(40.000000, -0.000000)">
                        <path d="M308.5,46.5625 L308.5,698.4375" id="Line"></path>
                    </g>
                </g>
            </g>
        </g>
        <g id="Oval-19-+-Oval-19-copy-+-plus_alt" sketch:type="MSLayerGroup" transform="translate(-113.000000, 13.000000)">
            <g id="Oval-19-+-Oval-19-copy" transform="translate(126.000000, 0.000000)" sketch:type="MSShapeGroup">
                <circle d="M24,48 C37.2548347,48 48,37.2548347 48,24 C48,10.7451653 37.2548347,0 24,0 C10.7451653,0 0,10.7451653 0,24 C0,37.2548347 10.7451653,48 24,48 Z M24,48" id="Oval-19" stroke="#898989" stroke-width="6" cx="24" cy="24" r="24"></circle>
                <path d="M21.3498182,32.965035 L25.9676643,32.965035 L25.9676643,37.2727273 L21.3498182,37.2727273 L21.3498182,32.965035 Z M15.8704336,20.489958 C15.8704336,19.226362 16.0599701,18.0776555 16.439049,17.0438042 C16.8181278,16.0099529 17.3695069,15.1254489 18.0932028,14.3902657 C18.8168987,13.6550826 19.6899156,13.0864729 20.7122797,12.6844196 C21.7346438,12.2823663 22.8776067,12.0813427 24.1412028,12.0813427 C25.1980286,12.0813427 26.1801726,12.236418 27.0876643,12.5465734 C27.9951561,12.8567288 28.7877635,13.3047243 29.4655105,13.8905734 C30.1432575,14.4764225 30.677406,15.2058511 31.067972,16.0788811 C31.4585381,16.9519111 31.6538182,17.9397987 31.6538182,19.0425734 C31.6538182,19.84668 31.5676652,20.5416474 31.3953566,21.1274965 C31.2230481,21.7133456 30.9933068,22.2187764 30.7061259,22.6438042 C30.418945,23.068832 30.0915636,23.4479051 29.723972,23.781035 C29.3563804,24.1141648 28.9887944,24.4415462 28.6212028,24.7631888 C28.1846878,25.1307804 27.7826405,25.4868794 27.415049,25.8314965 C27.0474574,26.1761136 26.7258196,26.5609303 26.4501259,26.985958 C26.1744322,27.4109858 25.9619215,27.9106731 25.8125874,28.485035 C25.6632533,29.0593968 25.5885874,29.7601078 25.5885874,30.5871888 L21.8667413,30.5871888 C21.8667413,29.576312 21.918433,28.7205256 22.0218182,28.0198042 C22.1252033,27.3190827 22.2917658,26.7045248 22.5215105,26.1761119 C22.7512552,25.647699 23.0326883,25.1824729 23.3658182,24.7804196 C23.6989481,24.3783663 24.0952518,23.9820626 24.5547413,23.5914965 C24.9223328,23.2698539 25.2726883,22.9711902 25.6058182,22.6954965 C25.9389481,22.4198028 26.2376117,22.1153956 26.5018182,21.7822657 C26.7660246,21.4491359 26.9727918,21.0758063 27.1221259,20.6622657 C27.27146,20.2487252 27.3461259,19.7547814 27.3461259,19.1804196 C27.3461259,18.4911854 27.2255117,17.8996015 26.9842797,17.4056503 C26.7430477,16.9116992 26.4501276,16.5153954 26.1055105,16.2167273 C25.7608934,15.9180591 25.3933073,15.6998049 25.0027413,15.561958 C24.6121752,15.4241112 24.2675633,15.3551888 23.9688951,15.3551888 C22.5444777,15.3551888 21.4934113,15.8204149 20.8156643,16.7508811 C20.1379174,17.6813473 19.799049,18.9276938 19.799049,20.489958 C19.799049,20.489958 19.799049,18.9276938 19.799049,20.489958 L15.8704336,20.489958 Z M15.8704336,20.489958" id="?" fill="#898989"></path>
            </g>
        </g>
    </g>
</svg>