<?xml version="1.0" encoding="UTF-8" standalone="no"?>
<svg width="100px" height="100px" viewBox="0 0 100 100" version="1.1" xmlns="http://www.w3.org/2000/svg" xmlns:xlink="http://www.w3.org/1999/xlink" xmlns:sketch="http://www.bohemiancoding.com/sketch/ns">
    <title>Slice 1</title>
    <description>Created with Sketch (http://www.bohemiancoding.com/sketch)</description>
    <defs>
        <rect id="path-1" x="0" y="0" width="100" height="100"></rect>
        <mask id="mask-2" sketch:name="Rectangle 2" fill="white">
            <use xlink:href="#path-1"></use>
        </mask>
    </defs>
    <g id="Page-1" stroke="none" stroke-width="1" fill="none" fill-rule="evenodd" sketch:type="MSPage">
        <use id="Rectangle-2" sketch:type="MSShapeGroup" xlink:href="#path-1"></use>
        <g id="line" sketch:type="MSLayerGroup" mask="url(#mask-2)" transform="translate(-394.000000, -112.000000)">
            <g id="Page-1" sketch:type="MSShapeGroup">
                <g id="Rectangle-1" transform="translate(176.000000, 16.000000)">
                    <rect d="M0,0 L0,305 L305,305 L305,0 L0,0 Z M0,0" id="path-1" x="0" y="0" width="305" height="305"></rect>
                </g>
                <g id="Group">
                    <path d="M0,106.470958 L1.51126126,105.386578 C3.02252252,104.302198 6.04504505,102.133437 9.06756757,109.577087 C12.0900901,117.020736 15.1126126,134.076795 18.1351351,134.644665 C21.1576577,135.212535 24.1801802,119.292216 27.2027027,115.365696 C30.2252252,111.439176 33.2477477,119.506455 36.2702703,123.447389 C39.2927928,127.388323 42.3153153,127.202912 45.3378378,129.336084 C48.3603604,131.469257 51.3828829,135.921013 54.4054054,138.002599 C57.4279279,140.084186 60.4504505,139.795602 63.472973,135.543246 C66.4954955,131.290891 69.518018,123.074764 72.5405405,118.240949 C75.5630631,113.407134 78.5855856,111.955632 81.6081081,110.825845 C84.6306306,109.696058 87.6531532,108.887985 90.6756757,109.84801 C93.6981982,110.808036 96.7207207,113.53616 99.7432432,113.827026 C102.765766,114.117893 105.788288,111.971503 108.810811,111.542287 C111.833333,111.113071 114.855856,112.401029 117.878378,117.212482 C120.900901,122.023936 123.923423,130.358884 126.945946,134.381604 C129.968468,138.404323 132.990991,138.114815 136.013514,136.82054 C139.036036,135.526266 142.058559,133.227225 145.081081,129.95018 C148.103604,126.673136 151.126126,122.418088 154.148649,122.773353 C157.171171,123.128618 160.193694,128.094196 163.216216,132.658505 C166.238739,137.222814 169.261261,141.385853 172.283784,144.705679 C175.306306,148.025504 178.328829,150.502115 181.351351,152.69714 C184.373874,154.892165 187.396396,156.805604 190.418919,155.613088 C193.441441,154.420572 196.463964,150.122101 199.486486,144.692192 C202.509009,139.262283 205.531532,132.700936 208.554054,129.85142 C211.576577,127.001903 214.599099,127.864217 217.621622,124.775569 C220.644144,121.686921 223.666667,114.647311 226.689189,109.067404 C229.711712,103.487498 232.734234,99.3672943 235.756757,93.2903256 C238.779279,87.2133568 241.801802,79.1796225 244.824324,76.6309453 C247.846847,74.0822681 250.869369,77.018648 253.891892,76.6880108 C256.914414,76.3573736 259.936937,72.7597192 262.959459,67.2597485 C265.981982,61.7597778 269.004505,54.3574908 272.027027,49.9743057 C275.04955,45.5911207 278.072072,44.2270375 281.094595,41.5835562 C284.117117,38.9400749 287.13964,35.0171955 290.162162,39.8559683 C293.184685,44.6947412 296.207207,58.2951664 299.22973,68.2704935 C302.252252,78.2458206 305.274775,84.5960497 308.297297,88.3739192 C311.31982,92.1517887 314.342342,93.3572986 317.364865,97.6204469 C320.387387,101.883595 323.40991,109.204382 326.432432,113.241978 C329.454955,117.279575 332.477477,118.033982 335.5,121.091514 C338.522523,124.149045 341.545045,129.509702 344.567568,135.191561 C347.59009,140.873419 350.612613,146.876479 353.635135,152.549025 C356.657658,158.221572 359.68018,163.563604 362.702703,173.088624 C365.725225,182.613644 368.747748,196.32165 371.77027,202.357756 C374.792793,208.393862 377.815315,206.758067 380.837838,208.144847 C383.86036,209.531628 386.882883,213.940985 389.905405,211.021036 C392.927928,208.101087 395.95045,197.851833 398.972973,190.26802 C401.995495,182.684207 405.018018,177.765836 408.040541,172.691536 C411.063063,167.617235 414.085586,162.387004 417.108108,157.970562 C420.130631,153.554119 423.153153,149.951465 426.175676,147.871477 C429.198198,145.791489 432.220721,145.234168 435.243243,148.03396 C438.265766,150.833753 441.288288,156.990659 444.310811,159.376031 C447.333333,161.761403 450.355856,160.37524 453.378378,158.766731 C456.400901,157.158222 459.423423,155.327365 462.445946,150.847682 C465.468468,146.367999 468.490991,139.239489 471.513514,137.206949 C474.536036,135.174409 477.558559,138.237839 480.581081,133.685444 C483.603604,129.133049 486.626126,116.964829 489.648649,112.410331 C492.671171,107.855833 495.693694,110.915057 498.716216,115.522345 C501.738739,120.129633 504.761261,126.284985 507.783784,131.999078 C510.806306,137.713171 513.828829,142.986006 516.851351,144.694022 C519.873874,146.402039 522.896396,144.545237 525.918919,138.53724 C528.941441,132.529243 531.963964,122.370051 534.986486,115.876228 C538.009009,109.382405 541.031532,106.553952 544.054054,101.037837 C547.076577,95.5217218 550.099099,87.3179453 553.121622,77.6041248 C556.144144,67.8903044 559.166667,56.66644 562.189189,50.1325222 C565.211712,43.5986043 568.234234,41.754633 571.256757,38.3319002 C574.279279,34.9091675 577.301802,29.9076735 580.324324,28.2721413 C583.346847,26.6366092 586.369369,28.3670391 589.391892,25.791733 C592.414414,23.216427 595.436937,16.3353852 598.459459,12.9026252 C601.481982,9.46986528 604.504505,9.48538726 607.527027,9.17633638 C610.54955,8.8672855 613.572072,8.23366175 616.594595,7.24131432 C619.617117,6.24896689 622.63964,4.89789577 625.662162,7.53650877 C628.684685,10.1751218 631.707207,16.8034189 634.72973,20.6986315 C637.752252,24.593844 640.774775,25.755972 643.797297,32.4530698 C646.81982,39.1501675 649.842342,51.3822352 652.864865,61.3740961 C655.887387,71.3659571 658.90991,79.1176114 661.932432,74.1289062 C664.954955,69.1402011 667.977477,51.4111365 669.488739,42.5466043 L671,33.682072" id="Shape" stroke="#1F77B4" stroke-dasharray="0,0"></path>
                    <path d="M0,0.915069562 L1.51126126,0.265234073 C3.02252252,-0.384601415 6.04504505,-1.68427239 9.06756757,21.9805634 C12.0900901,45.6453991 15.1126126,94.2747416 18.1351351,101.786937 C21.1576577,109.299133 24.1801802,75.694181 27.2027027,66.6567092 C30.2252252,57.6192375 33.2477477,73.1492455 36.2702703,83.4914253 C39.2927928,93.8336051 42.3153153,98.9879566 45.3378378,106.120492 C48.3603604,113.253027 51.3828829,122.363745 54.4054054,127.787381 C57.4279279,133.211017 60.4504505,134.947571 63.472973,132.433929 C66.4954955,129.920287 69.518018,123.15645 72.5405405,123.318353 C75.5630631,123.480256 78.5855856,130.567898 81.6081081,130.134925 C84.6306306,129.701952 87.6531532,121.748364 90.6756757,113.979447 C93.6981982,106.21053 96.7207207,98.626285 99.7432432,96.6241316 C102.765766,94.6219782 105.788288,98.2019168 108.810811,103.417932 C111.833333,108.633947 114.855856,115.486039 117.878378,125.172106 C120.900901,134.858173 123.923423,147.378215 126.945946,154.099406 C129.968468,160.820596 132.990991,161.742934 136.013514,158.613793 C139.036036,155.484651 142.058559,148.304029 145.081081,144.514256 C148.103604,140.724482 151.126126,140.325557 154.148649,143.36663 C157.171171,146.407703 160.193694,152.888775 163.216216,159.241297 C166.238739,165.59382 169.261261,171.817793 172.283784,174.717073 C175.306306,177.616352 178.328829,177.190936 181.351351,181.488307 C184.373874,185.785677 187.396396,194.805832 190.418919,203.174096 C193.441441,211.54236 196.463964,219.258732 199.486486,224.286567 C202.509009,229.314402 205.531532,231.6537 208.554054,233.272065 C211.576577,234.89043 214.599099,235.787861 217.621622,226.138466 C220.644144,216.489072 223.666667,196.29285 226.689189,190.058036 C229.711712,183.823222 232.734234,191.549814 235.756757,195.128349 C238.779279,198.706883 241.801802,198.137359 244.824324,191.484136 C247.846847,184.830913 250.869369,172.093991 253.891892,169.38218 C256.914414,166.67037 259.936937,173.98367 262.959459,175.159779 C265.981982,176.335889 269.004505,171.374808 272.027027,169.917188 C275.04955,168.459568 278.072072,170.505408 281.094595,169.720238 C284.117117,168.935068 287.13964,165.318888 290.162162,165.159531 C293.184685,165.000174 296.207207,168.29764 299.22973,171.094125 C302.252252,173.89061 305.274775,176.186113 308.297297,179.257366 C311.31982,182.328618 314.342342,186.17562 317.364865,194.525491 C320.387387,202.875362 323.40991,215.728102 326.432432,218.799813 C329.454955,221.871524 332.477477,215.162204 335.5,210.226171 C338.522523,205.290137 341.545045,202.12739 344.567568,206.205918 C347.59009,210.284446 350.612613,221.604251 353.635135,223.63898 C356.657658,225.67371 359.68018,218.423364 362.702703,214.061709 C365.725225,209.700054 368.747748,208.227089 371.77027,209.013385 C374.792793,209.79968 377.815315,212.845234 380.837838,215.08315 C383.86036,217.321067 386.882883,218.751345 389.905405,217.037662 C392.927928,215.323979 395.95045,210.466336 398.972973,207.823088 C401.995495,205.17984 405.018018,204.750988 408.040541,198.915183 C411.063063,193.079379 414.085586,181.836622 417.108108,169.743608 C420.130631,157.650594 423.153153,144.707323 426.175676,139.0174 C429.198198,133.327477 432.220721,134.890903 435.243243,135.573233 C438.265766,136.255563 441.288288,136.056797 444.310811,134.075333 C447.333333,132.09387 450.355856,128.329709 453.378378,124.835308 C456.400901,121.340906 459.423423,118.116265 462.445946,120.051421 C465.468468,121.986578 468.490991,129.081532 471.513514,134.184435 C474.536036,139.287339 477.558559,142.398192 480.581081,140.41894 C483.603604,138.439687 486.626126,131.37033 489.648649,127.565431 C492.671171,123.760531 495.693694,123.220089 498.716216,124.627216 C501.738739,126.034343 504.761261,129.389038 507.783784,136.327669 C510.806306,143.266299 513.828829,153.788866 516.851351,163.416102 C519.873874,173.043339 522.896396,181.775246 525.918919,189.824588 C528.941441,197.873929 531.963964,205.240704 534.986486,211.991148 C538.009009,218.741592 541.031532,224.875704 544.054054,231.74209 C547.076577,238.608477 550.099099,246.207137 553.121622,254.771067 C556.144144,263.334996 559.166667,272.864194 562.189189,278.573251 C565.211712,284.282308 568.234234,286.171224 571.256757,284.305915 C574.279279,282.440606 577.301802,276.821072 580.324324,274.066029 C583.346847,271.310985 586.369369,271.420433 589.391892,272.036396 C592.414414,272.652358 595.436937,273.774836 598.459459,269.690251 C601.481982,265.605666 604.504505,256.314018 607.527027,242.149398 C610.54955,227.984777 613.572072,208.947184 616.594595,201.096655 C619.617117,193.246125 622.63964,196.582658 625.662162,190.142982 C628.684685,183.703306 631.707207,167.487421 634.72973,159.265074 C637.752252,151.042727 640.774775,150.813917 643.797297,143.738283 C646.81982,136.662649 649.842342,122.740189 652.864865,93.1349178 C655.887387,63.5296465 658.90991,18.2415633 661.932432,31.1303155 C664.954955,44.0190677 669.28952,13.447675 670.800781,48.9804688" id="Shape" stroke="#FF7F0E" stroke-dasharray="4,4"></path>
                    <path d="M0,219.796999 L1.51126126,213.29611 C3.02252252,206.795221 6.04504505,193.793444 9.06756757,191.28011 C12.0900901,188.766776 15.1126126,196.741885 18.1351351,204.005883 C21.1576577,211.269882 24.1801802,217.82277 27.2027027,220.215673 C30.2252252,222.608575 33.2477477,220.841492 36.2702703,216.067206 C39.2927928,211.292919 42.3153153,203.511428 45.3378378,198.583977 C48.3603604,193.656527 51.3828829,191.583117 54.4054054,187.493655 C57.4279279,183.404193 60.4504505,177.29868 63.472973,174.015234 C66.4954955,170.731788 69.518018,170.27041 72.5405405,168.785098 C75.5630631,167.299787 78.5855856,164.790544 81.6081081,162.26429 C84.6306306,159.738036 87.6531532,157.194772 90.6756757,154.841407 C93.6981982,152.488042 96.7207207,150.324576 99.7432432,145.879423 C102.765766,141.43427 105.788288,134.707431 108.810811,128.962904 C111.833333,123.218377 114.855856,118.456164 117.878378,117.298436 C120.900901,116.140708 123.923423,118.587466 126.945946,120.592291 C129.968468,122.597116 132.990991,124.160007 136.013514,128.934851 C139.036036,133.709695 142.058559,141.696492 145.081081,150.872749 C148.103604,160.049005 151.126126,170.414723 154.148649,178.019863 C157.171171,185.625003 160.193694,190.469567 163.216216,195.156705 C166.238739,199.843844 169.261261,204.373557 172.283784,206.025237 C175.306306,207.676917 178.328829,206.450564 181.351351,203.559106 C184.373874,200.667648 187.396396,196.111085 190.418919,196.59927 C193.441441,197.087455 196.463964,202.620387 199.486486,210.390911 C202.509009,218.161434 205.531532,228.169549 208.554054,231.643758 C211.576577,235.117967 214.599099,232.058271 217.621622,227.765194 C220.644144,223.472117 223.666667,217.945661 226.689189,213.603836 C229.711712,209.262011 232.734234,206.104818 235.756757,202.683078 C238.779279,199.261339 241.801802,195.575053 244.824324,193.545705 C247.846847,191.516358 250.869369,191.143948 253.891892,192.671254 C256.914414,194.198559 259.936937,197.62558 262.959459,198.527265 C265.981982,199.428949 269.004505,197.805297 272.027027,195.481474 C275.04955,193.157652 278.072072,190.133658 281.094595,190.552504 C284.117117,190.97135 287.13964,194.833035 290.162162,194.483612 C293.184685,194.134189 296.207207,189.573659 299.22973,186.835299 C302.252252,184.096938 305.274775,183.180748 308.297297,183.186714 C311.31982,183.192679 314.342342,184.120799 317.364865,188.349659 C320.387387,192.578518 323.40991,200.108117 326.432432,200.365429 C329.454955,200.622742 332.477477,193.607768 335.5,188.488629 C338.522523,183.369489 341.545045,180.146184 344.567568,176.308826 C347.59009,172.471468 350.612613,168.020056 353.635135,164.043644 C356.657658,160.067231 359.68018,156.565818 362.702703,153.105729 C365.725225,149.64564 368.747748,146.226875 371.77027,145.681717 C374.792793,145.136559 377.815315,147.465008 380.837838,148.25161 C383.86036,149.038212 386.882883,148.282967 389.905405,151.494794 C392.927928,154.70662 395.95045,161.885517 398.972973,165.772675 C401.995495,169.659833 405.018018,170.255251 408.040541,174.151421 C411.063063,178.047592 414.085586,185.244515 417.108108,191.936109 C420.130631,198.627703 423.153153,204.813968 426.175676,212.392102 C429.198198,219.970235 432.220721,228.940238 435.243243,233.191643 C438.265766,237.443047 441.288288,236.975852 444.310811,237.073664 C447.333333,237.171475 450.355856,237.834293 453.378378,237.483872 C456.400901,237.13345 459.423423,235.769788 462.445946,236.061835 C465.468468,236.353881 468.490991,238.301636 471.513514,236.937397 C474.536036,235.573158 477.558559,230.896926 480.581081,229.643616 C483.603604,228.390306 486.626126,230.559918 489.648649,228.168314 C492.671171,225.776709 495.693694,218.823888 498.716216,215.06921 C501.738739,211.314531 504.761261,210.757995 507.783784,205.324132 C510.806306,199.890268 513.828829,189.579078 516.851351,183.205907 C519.873874,176.832736 522.896396,174.397584 525.918919,172.674188 C528.941441,170.950792 531.963964,169.939153 534.986486,168.491321 C538.009009,167.043488 541.031532,165.159462 544.054054,162.271547 C547.076577,159.383631 550.099099,155.491825 553.121622,155.938325 C556.144144,156.384826 559.166667,161.169633 562.189189,165.668646 C565.211712,170.167659 568.234234,174.380877 571.256757,180.392469 C574.279279,186.404061 577.301802,194.214026 580.324324,197.864021 C583.346847,201.514017 586.369369,201.004042 589.391892,202.697659 C592.414414,204.391276 595.436937,208.288485 598.459459,213.206683 C601.481982,218.124881 604.504505,224.064068 607.527027,231.875902 C610.54955,239.687735 613.572072,249.372216 616.594595,251.811361 C619.617117,254.250506 622.63964,249.444315 625.662162,248.382153 C628.684685,247.31999 631.707207,250.001856 634.72973,252.525659 C637.752252,255.049462 640.774775,257.415202 643.797297,267.55175 C646.81982,277.688297 649.842342,295.595653 652.864865,305.12465 C655.887387,314.653646 658.90991,315.804284 661.932432,298.711574 C664.954955,281.618863 667.977477,246.282805 669.488739,228.614775 L671,210.946746" id="Shape" stroke="#2CA02C" stroke-dasharray="8,8"></path>
                    <path d="M0,318.576129 L1.51126126,313.538153 C3.02252252,308.500177 6.04504505,298.424225 9.06756757,300.73789 C12.0900901,303.051554 15.1126126,317.754834 18.1351351,321.774276 C21.1576577,325.793717 24.1801802,319.129319 27.2027027,313.31298 C30.2252252,307.49664 33.2477477,302.528359 36.2702703,301.637531 C39.2927928,300.746702 42.3153153,303.933326 45.3378378,304.116025 C48.3603604,304.298724 51.3828829,301.477499 54.4054054,298.649263 C57.4279279,295.821026 60.4504505,292.985779 63.472973,289.44078 C66.4954955,285.895782 69.518018,281.641032 72.5405405,277.345747 C75.5630631,273.050463 78.5855856,268.714643 81.6081081,264.072612 C84.6306306,259.430582 87.6531532,254.482341 90.6756757,252.045543 C93.6981982,249.608745 96.7207207,249.683391 99.7432432,250.983945 C102.765766,252.284499 105.788288,254.810961 108.810811,256.166674 C111.833333,257.522386 114.855856,257.707348 117.878378,254.464273 C120.900901,251.221198 123.923423,244.550084 126.945946,236.218416 C129.968468,227.886748 132.990991,217.894524 136.013514,208.035209 C139.036036,198.175893 142.058559,188.449485 145.081081,185.030228 C148.103604,181.61097 151.126126,184.498864 154.148649,188.885086 C157.171171,193.271309 160.193694,199.15586 163.216216,198.751609 C166.238739,198.347357 169.261261,191.654302 172.283784,183.639776 C175.306306,175.625249 178.328829,166.289251 181.351351,166.374587 C184.373874,166.459924 187.396396,175.966594 190.418919,177.873941 C193.441441,179.781288 196.463964,174.089311 199.486486,171.113795 C202.509009,168.138278 205.531532,167.879221 208.554054,169.960402 C211.576577,172.041584 214.599099,176.463003 217.621622,180.230777 C220.644144,183.99855 223.666667,187.112677 226.689189,195.119444 C229.711712,203.126212 232.734234,216.025619 235.756757,227.421738 C238.779279,238.817857 241.801802,248.710689 244.824324,246.462172 C247.846847,244.213655 250.869369,229.82379 253.891892,222.797011 C256.914414,215.770232 259.936937,216.106537 262.959459,219.672161 C265.981982,223.237785 269.004505,230.032728 272.027027,237.272789 C275.04955,244.51285 278.072072,252.198029 281.094595,256.612978 C284.117117,261.027928 287.13964,262.172646 290.162162,266.966079 C293.184685,271.759512 296.207207,280.201658 299.22973,287.030189 C302.252252,293.858721 305.274775,299.073637 308.297297,298.366554 C311.31982,297.659471 314.342342,291.03039 317.364865,285.446378 C320.387387,279.862366 323.40991,275.323424 326.432432,269.636863 C329.454955,263.950302 332.477477,257.116123 335.5,252.079012 C338.522523,247.041901 341.545045,243.801859 344.567568,247.894153 C347.59009,251.986447 350.612613,263.411078 353.635135,263.957431 C356.657658,264.503784 359.68018,254.171859 362.702703,250.449519 C365.725225,246.727178 368.747748,249.614423 371.77027,253.644255 C374.792793,257.674087 377.815315,262.846506 380.837838,262.146781 C383.86036,261.447056 386.882883,254.875186 389.905405,252.587784 C392.927928,250.300382 395.95045,252.297446 398.972973,248.677276 C401.995495,245.057107 405.018018,235.819702 408.040541,234.570037 C411.063063,233.320371 414.085586,240.058444 417.108108,246.404767 C420.130631,252.75109 423.153153,258.705664 426.175676,262.781772 C429.198198,266.85788 432.220721,269.055523 435.243243,273.427725 C438.265766,277.799927 441.288288,284.346688 444.310811,290.137463 C447.333333,295.928238 450.355856,300.963026 453.378378,306.029777 C456.400901,311.096527 459.423423,316.19524 462.445946,317.164443 C465.468468,318.133646 468.490991,314.973339 471.513514,312.976381 C474.536036,310.979423 477.558559,310.145814 480.581081,308.267679 C483.603604,306.389545 486.626126,303.466886 489.648649,298.482809 C492.671171,293.498732 495.693694,286.453237 498.716216,284.020454 C501.738739,281.587672 504.761261,283.767601 507.783784,282.018523 C510.806306,280.269445 513.828829,274.59136 516.851351,268.596935 C519.873874,262.60251 522.896396,256.291746 525.918919,254.021275 C528.941441,251.750803 531.963964,253.520623 534.986486,249.826728 C538.009009,246.132834 541.031532,236.975224 544.054054,226.795715 C547.076577,216.616205 550.099099,205.414796 553.121622,200.078565 C556.144144,194.742334 559.166667,195.271281 562.189189,189.913622 C565.211712,184.555963 568.234234,173.311697 571.256757,167.983311 C574.279279,162.654925 577.301802,163.242418 580.324324,166.41094 C583.346847,169.579463 586.369369,175.329015 589.391892,179.494884 C592.414414,183.660753 595.436937,186.242938 598.459459,188.2076 C601.481982,190.172261 604.504505,191.519398 607.527027,193.027545 C610.54955,194.535693 613.572072,196.204851 616.594595,200.744244 C619.617117,205.283638 622.63964,212.693267 625.662162,215.38319 C628.684685,218.073114 631.707207,216.043333 634.72973,217.584724 C637.752252,219.126115 640.774775,224.238678 643.797297,230.694812 C646.81982,237.150947 649.842342,244.950654 652.864865,249.543522 C655.887387,254.13639 658.90991,255.522419 661.932432,265.18083 C664.954955,274.83924 667.977477,292.770032 669.488739,301.735428 L671,310.700824" id="Shape" stroke="#D62728" stroke-dasharray="12,12"></path>
                </g>
            </g>
        </g>
    </g>
</svg>