<?xml version="1.0" encoding="UTF-8" standalone="no"?>
<svg width="16px" height="16px" viewBox="0 0 16 16" version="1.1" xmlns="http://www.w3.org/2000/svg" xmlns:xlink="http://www.w3.org/1999/xlink" xmlns:sketch="http://www.bohemiancoding.com/sketch/ns">
    <title>Slice 1</title>
    <description>Created with Sketch (http://www.bohemiancoding.com/sketch)</description>
    <defs></defs>
    <g id="Page-1" stroke="none" stroke-width="1" fill="none" fill-rule="evenodd" sketch:type="MSPage">
        <path d="M1.79897863,1.80119041 C-0.59574529,4.20272166 -0.601611487,8.13684348 1.79311326,10.5384306 C3.82204027,12.5731735 6.95090391,12.8832422 9.31496945,11.468918 L13.5398397,15.5888483 C14.1212956,16.1548219 15.0387208,16.1339015 15.5938899,15.5420079 C16.1491164,14.9501176 16.134562,14.0187969 15.5530504,13.4528233 L11.3924304,9.40897987 C12.8512455,7.03103648 12.5550111,3.8566334 10.5054414,1.80119035 C8.11071831,-0.600396784 4.19364765,-0.600396784 1.79897863,1.80119035 L1.79897863,1.80119035 L1.79897863,1.80119035 L1.79897863,1.80119041 L1.79897863,1.80119041 Z M3.17752447,3.17752576 C4.7475589,1.60749141 7.25244297,1.60749141 8.82247553,3.17752576 C10.3925082,4.7475583 10.3925082,7.25244037 8.82247553,8.82247284 C7.25244291,10.3925091 4.7475589,10.3925091 3.17752447,8.82247284 C1.60749184,7.25244031 1.60749184,4.74755824 3.17752447,3.17752576 C3.17752447,3.17752576 1.60749184,4.74755824 3.17752447,3.17752576 L3.17752447,3.17752576 L3.17752447,3.17752576 Z M3.17752447,3.17752576" id="path12423" fill="#898989" sketch:type="MSShapeGroup"></path>
    </g>
</svg>