<?xml version="1.0" encoding="UTF-8" standalone="no"?>
<svg width="90px" height="95px" viewBox="0 0 90 95" version="1.1" xmlns="http://www.w3.org/2000/svg" xmlns:xlink="http://www.w3.org/1999/xlink" xmlns:sketch="http://www.bohemiancoding.com/sketch/ns">
    <title>Slice 1</title>
    <description>Created with Sketch (http://www.bohemiancoding.com/sketch)</description>
    <defs>
        <rect id="path-1" x="0" y="-14" width="90" height="110"></rect>
        <mask id="mask-2" sketch:name="Rectangle 1" fill="white">
            <use xlink:href="#path-1"></use>
        </mask>
    </defs>
    <g id="Page-1" stroke="none" stroke-width="1" fill="none" fill-rule="evenodd" sketch:type="MSPage">
        <use id="Rectangle-1" sketch:type="MSShapeGroup" xlink:href="#path-1"></use>
        <g id="graphGroup" sketch:type="MSLayerGroup" mask="url(#mask-2)" transform="translate(-265.000000, -22.000000)">
            <path d="M4.78502483,99.0302175 C5.57251288,99.8202565 8.00690036,91.127598 9.57004965,91.356142 C11.1331989,91.584686 13.0217005,99.8786682 14.3681841,100.454288 C15.7146678,101.029908 18.1575394,96.2375044 19.153209,95.4721835 C20.1488786,94.7068625 22.3585892,93.2526136 23.9382338,93.0982739 C25.5178784,92.9439342 27.1534158,94.7424248 28.7232586,94.5371386 C30.2931014,94.3318525 32.8665183,92.6177066 33.5213931,91.839441 C34.1762679,91.0611755 36.748435,83.3944872 38.3064179,83.1565401 C39.8644009,82.9185929 41.5015203,83.5051074 43.0914428,83.4160193 C44.6813652,83.3269312 46.305905,80.2687546 47.8764676,80.0661412 C49.4470302,79.8635279 51.215755,80.1508462 52.6746021,80.5959263 C54.1334492,81.0410065 56.9475399,86.0025248 57.4596269,86.7402934 C57.9717139,87.478062 61.0763432,93.6840846 62.2446517,94.3835879 C63.4129602,95.0830913 65.5658418,95.0133207 67.0296766,95.4510506 C68.4935113,95.8887804 70.6208792,98.0631306 71.827811,98.7430681 C73.0347429,99.4230056 75.1777596,100.376802 76.6128359,100.851431 C78.0479122,101.326061 79.8041007,101.864028 81.3978607,101.908217 C82.9916207,101.952406 84.5874934,101.92421 86.1828855,101.977317 C87.7782776,102.030425 89.3861976,103.202546 90.98102,103.263465 C92.5758424,103.324385 94.3217239,102.80858 95.7660448,102.346391 C97.2103658,101.884201 98.9917141,100.434602 100.55107,100.201005 C102.110425,99.967407 103.752459,100.335961 105.336094,100.481127 C106.91973,100.626294 108.53902,101.400482 110.134229,101.344738 C111.729438,101.288995 113.417922,100.520604 114.919254,100.149067 C116.420586,99.7775287 118.110871,98.9263846 119.704279,98.9764179 C121.297686,99.0264512 122.894168,100.392812 124.489303,100.449568 C126.084439,100.506323 127.751684,99.6181438 129.287438,99.3138212 C130.823192,99.0094986 132.477967,98.5783891 134.072463,98.5500782 C135.666959,98.5217674 137.314052,98.8643884 138.857488,99.1439016 C140.400924,99.4234148 142.062792,100.118601 143.642512,100.283195 C145.222233,100.44779 146.864647,100.350192 148.440647,100.531254 C150.016647,100.712316 151.644933,101.664088 153.225672,101.812881 C154.806411,101.961673 156.445223,101.645097 158.010697,101.432067 C159.57617,101.219038 161.199768,100.554663 162.795721,100.510587 C164.391674,100.466512 165.997737,100.611958 167.593856,100.57093 C169.189975,100.529902 170.851491,100.027487 172.378881,99.709098 C173.90627,99.3907094 175.661784,98.9460916 177.163906,98.5760265 C178.666028,98.2059613 180.527508,97.84661 181.94893,97.3514054 C183.370353,96.8562008 185.175257,95.4340685 186.747065,95.2361699 C188.318873,95.0382713 189.939787,95.3822622 191.53209,95.4472895 C193.124392,95.5123167 194.771375,95.5785105 196.317114,95.8519129 C197.862854,96.1253154 199.667916,96.6610168 201.102139,97.1399902 C202.536363,97.6189636 204.554562,98.4768134 205.900274,99.0531538 C207.245985,99.6294942 209.109775,101.070288 210.685299,101.243872 C212.260822,101.417456 213.877577,100.048072 215.470323,100.107538 C217.06307,100.167004 218.770792,102.0063 220.255348,101.601175 C221.739904,101.19605 223.637605,97.9866667 225.053483,97.4846934 C226.46936,96.9827202 228.27064,98.4014127 229.838508,98.1970429 C231.406375,97.9926731 233.032565,96.3166874 234.623532,96.2372479 C236.214499,96.1578083 237.812947,97.7689931 239.408557,97.7191947 C241.004167,97.6693963 242.787999,95.4351359 244.206692,95.9336915 C245.625385,96.4322471 247.842084,100.368501 248.991717,101.077413 C250.141349,101.786326 252.568847,101.729479 253.776741,102.40694 C254.984635,103.0844 257.560622,106.199773 258.561766,106.965086 C259.56291,107.730399 262.13054,109.063995 263.359901,109.730211 C264.589262,110.396426 266.714829,111.677715 268.144926,112.15884 C269.575023,112.639965 271.349982,113.102566 272.92995,112.949844 C274.509918,112.797122 276.250169,111.670062 277.714975,111.233785 C279.179781,110.797507 281.207822,110.707933 282.51311,110.096394 C283.818397,109.484855 286.103828,107.432379 287.298134,106.747019 C288.492441,106.06166 290.506995,104.775312 292.083159,104.604572 C293.659324,104.433831 295.316346,104.546731 296.868184,104.283895 C298.420022,104.021058 300.069214,100.755544 301.666319,100.743754 C303.263423,100.731964 304.856363,100.723715 306.451343,100.730275 C308.046324,100.736835 309.725946,102.364136 311.236368,102.718253 C312.746791,103.072371 314.433641,103.23285 316.021393,103.111553 C317.609145,102.990257 319.358894,102.381581 320.819528,101.939113 C322.280161,101.496646 324.116295,100.604199 325.604552,100.20931 C327.092809,99.8144203 328.80854,99.5470718 330.389577,99.3998268 C331.970614,99.2525818 333.586651,99.0885016 335.174602,99.2085194 C336.762554,99.3285372 338.378351,100.148467 339.972737,100.214757 C341.567122,100.281047 343.202537,100.229617 344.757761,100.476049 C346.312986,100.722482 348.059058,104.632395 349.542786,105.034959 C351.026515,105.437523 352.757355,104.758606 354.327811,104.555595 C355.898267,104.352584 357.558667,103.301784 359.125946,103.087266 C360.693224,102.872747 362.315969,102.872079 363.91097,102.868898 C365.505972,102.865717 367.121667,102.871274 368.695995,103.050037 C370.270323,103.2288 372.051046,104.037655 373.48102,104.518938 C374.910994,105.000222 376.748219,105.931916 378.266045,106.271011 C379.78387,106.610106 381.456317,106.636953 383.05107,106.656968 C384.645822,106.676983 386.266246,106.652814 387.836094,106.455918 C389.405943,106.259022 391.172167,105.268278 392.621119,104.809121 C394.070071,104.349963 395.833221,103.551281 397.419254,103.419474 C399.005287,103.287668 400.654268,103.748365 402.204279,104.010009 C403.75429,104.271652 405.404071,104.911582 406.989303,105.034911 C408.574536,105.158241 410.186973,104.735393 411.774328,104.859199 C413.361683,104.983006 415.2093,105.329486 416.572463,105.889063 C417.935625,106.448641 419.810702,108.519937 421.357488,108.790513 C422.904273,109.06109 424.560088,107.702941 426.142512,107.563135 C427.724936,107.423328 429.366332,107.710172 430.927537,107.945005 C432.488743,108.179837 434.199013,108.680431 435.725672,109.005534 C437.25233,109.330638 438.915817,110.000058 440.510697,109.985856 C442.105576,109.971654 443.706745,109.017304 445.295721,108.920315 C446.884698,108.823327 448.484062,109.373461 450.080746,109.401716 C451.67743,109.42997 453.281865,109.417898 454.878881,109.434581 C456.475896,109.451265 458.107246,109.947401 459.663906,109.705343 C461.220565,109.463284 462.862905,108.064705 464.44893,107.946452 C466.034956,107.828199 467.636763,107.828418 469.233955,107.827394 C470.831148,107.826369 472.435448,107.886241 474.03209,107.856851 C475.628732,107.827462 477.225213,106.91926 478.817114,106.849588 C480.409016,106.779916 482.032911,106.864555 483.602139,107.06382 C485.171368,107.263086 486.911897,108.730292 488.387164,109.150471 C489.862431,109.570649 491.669354,109.443571 493.185299,109.791267 C494.701243,110.138964 496.473824,110.966817 497.970323,111.347204 C499.466823,111.727591 501.171075,112.353028 502.755348,112.223827 C504.339622,112.094626 506.067879,110.991275 507.540373,110.566745 C509.012868,110.142216 510.792486,109.74036 512.338508,109.461702 C513.88453,109.183045 515.686898,109.311374 517.123532,108.838806 C518.560167,108.366237 520.350166,106.550378 521.908557,106.313715 C523.466948,106.077052 525.105295,107.267628 526.693582,107.38546 C528.281869,107.503293 529.922611,106.814727 531.491717,107.022711 C533.060822,107.230696 534.709759,108.445359 536.276741,108.652976 C537.843724,108.860593 539.485349,108.121087 541.061766,108.290692 C542.638183,108.460297 544.479967,110.238534 545.846791,109.682606 C547.213615,109.126678 549.176872,104.815163 550.644926,104.383792 C552.112979,103.952421 553.947146,105.427124 555.42995,105.023017 C556.912754,104.61891 558.65269,100.299558 560.214975,100.075553 C561.77726,99.8515481 564.491644,103.271002 565,103.650836 L565,117 L560.214975,117 L555.42995,117 L550.644926,117 L545.846791,117 L541.061766,117 L536.276741,117 L531.491717,117 L526.693582,117 L521.908557,117 L517.123532,117 L512.338508,117 L507.540373,117 L502.755348,117 L497.970323,117 L493.185299,117 L488.387164,117 L483.602139,117 L478.817114,117 L474.03209,117 L469.233955,117 L464.44893,117 L459.663906,117 L454.878881,117 L450.080746,117 L445.295721,117 L440.510697,117 L435.725672,117 L430.927537,117 L426.142512,117 L421.357488,117 L416.572463,117 L411.774328,117 L406.989303,117 L402.204279,117 L397.419254,117 L392.621119,117 L387.836094,117 L383.05107,117 L378.266045,117 L373.48102,117 L368.695995,117 L363.91097,117 L359.125946,117 L354.327811,117 L349.542786,117 L344.757761,117 L339.972737,117 L335.174602,117 L330.389577,117 L325.604552,117 L320.819528,117 L316.021393,117 L311.236368,117 L306.451343,117 L301.666319,117 L296.868184,117 L292.083159,117 L287.298134,117 L282.51311,117 L277.714975,117 L272.92995,117 L268.144926,117 L263.359901,117 L258.561766,117 L253.776741,117 L248.991717,117 L244.206692,117 L239.408557,117 L234.623532,117 L229.838508,117 L225.053483,117 L220.255348,117 L215.470323,117 L210.685299,117 L205.900274,117 L201.102139,117 L196.317114,117 L191.53209,117 L186.747065,117 L181.94893,117 L177.163906,117 L172.378881,117 L167.593856,117 L162.795721,117 L158.010697,117 L153.225672,117 L148.440647,117 L143.642512,117 L138.857488,117 L134.072463,117 L129.287438,117 L124.489303,117 L119.704279,117 L114.919254,117 L110.134229,117 L105.336094,117 L100.55107,117 L95.7660448,117 L90.98102,117 L86.1828855,117 L81.3978607,117 L76.6128359,117 L71.827811,117 L67.0296766,117 L62.2446517,117 L57.4596269,117 L52.6746021,117 L47.8764676,117 L43.0914428,117 L38.3064179,117 L33.5213931,117 L28.7232586,117 L23.9382338,117 L19.153209,117 L14.3681841,117 L9.57004965,117 L4.78502483,117 L0,117 L0,81.7550917 C0.0558504629,81.9567257 3.99753677,98.2401785 4.78502483,99.0302175 Z M4.78502483,99.0302175" id="rights,law,justice" fill="#CB0011" sketch:type="MSShapeGroup"></path>
            <path d="M4.78502483,83.8875619 C5.02035624,84.4332511 8.29144,72.5754452 9.57004965,73.1911439 C10.8486593,73.8068427 13.503474,87.7700792 14.3681841,88.5378324 C15.2328942,89.3055857 18.6952626,82.4261938 19.153209,81.7300693 C19.6111553,81.0339447 23.236175,74.7542072 23.9382338,73.9903929 C24.6402926,73.2265786 27.444105,71.9335089 28.7232586,71.3182052 C30.0024122,70.7029014 32.5881016,70.1410377 33.5213931,69.3816769 C34.4546846,68.6223162 37.3316965,64.2764731 38.3064179,63.5263645 C39.2811393,62.7762559 41.558829,62.3152464 43.0914428,62.0169299 C44.6240565,61.7186134 46.5895396,60.5905377 47.8764676,61.2001185 C49.1633956,61.8096992 52.0494174,66.9435959 52.6746021,67.6956114 C53.2997867,68.4476269 56.8278728,71.976842 57.4596269,72.7293863 C58.091381,73.4819307 61.3616463,78.3305269 62.2446517,79.0954366 C63.1276572,79.8603462 65.878247,80.3283807 67.0296766,81.0195089 C68.1811061,81.7106371 70.7117968,84.1432519 71.827811,84.8501809 C72.9438252,85.5571099 75.2553452,86.5442585 76.6128359,87.0920357 C77.9703265,87.6398129 79.8074335,88.6295623 81.3978607,88.7119056 C82.9882879,88.7942489 84.5861293,88.6000094 86.1828855,88.6254912 C87.7796418,88.650973 89.4413483,89.4731855 90.98102,89.1860964 C92.5206917,88.8990073 94.4044935,87.3864657 95.7660448,86.8425795 C97.1275961,86.2986933 99.1404464,85.8552276 100.55107,85.3632379 C101.961693,84.8712483 103.743203,83.5846414 105.336094,83.5047886 C106.928986,83.4249358 108.544086,83.7372487 110.134229,83.6351072 C111.724372,83.5329657 113.633239,81.8984915 114.919254,81.2903769 C116.205268,80.6822623 118.133641,79.2984775 119.704279,79.1097404 C121.274916,78.9210034 122.892303,79.2878559 124.489303,79.3047639 C126.086304,79.3216718 127.711216,79.6589241 129.287438,79.4835342 C130.86366,79.3081442 132.521876,77.2861263 134.072463,77.0329445 C135.623049,76.7797627 137.333936,77.137572 138.857488,77.4558722 C140.381039,77.7741724 142.173311,79.2090254 143.642512,79.6273558 C145.111714,80.0456862 146.878744,79.9558118 148.440647,80.1822993 C150.00255,80.4087868 151.677109,80.7578845 153.225672,81.0166003 C154.774235,81.2753162 156.417874,81.8380669 158.010697,81.7811515 C159.603519,81.7242362 161.258469,80.9674726 162.795721,80.6746395 C164.332974,80.3818064 166.196876,80.4663653 167.593856,79.9561782 C168.990835,79.4459911 171.182804,77.8439962 172.378881,77.1776247 C173.574957,76.5112532 176.051896,75.3313979 177.163906,74.6244054 C178.275915,73.9174128 180.965787,71.8427316 181.94893,71.0931863 C182.932073,70.343641 185.470054,67.934769 186.747065,67.317913 C188.024075,66.701057 189.942085,66.3740435 191.53209,66.4600882 C193.122094,66.5461328 195.164132,67.1471173 196.317114,67.8358057 C197.470097,68.524494 200.133328,71.4236824 201.102139,72.1763774 C202.070951,72.9290723 205.106689,74.5091222 205.900274,75.2795049 C206.693859,76.0498876 209.806093,80.7098051 210.685299,81.4751012 C211.564504,82.2403973 214.250918,82.9567975 215.470323,83.6096663 C216.689729,84.2625352 218.722738,86.9024 220.255348,86.5988975 C221.787959,86.2953949 223.459869,81.7739912 225.053483,81.7011291 C226.647096,81.6282671 228.243583,86.1590966 229.838508,86.1479607 C231.433432,86.1368248 233.149097,82.0410577 234.623532,81.6343103 C236.097968,81.2275628 238.147007,81.3545728 239.408557,80.7268342 C240.670107,80.0990956 242.807623,72.3395677 244.206692,71.8316706 C245.605761,71.3237734 247.664234,76.6534726 248.991717,77.2283628 C250.319199,77.8032529 252.27637,75.6126425 253.776741,75.9761525 C255.277113,76.3396626 257.900139,78.7880122 258.561766,79.5469943 C259.223393,80.3059763 262.572901,86.2043602 263.359901,86.9746768 C264.146901,87.7449934 266.567061,88.7758024 268.144926,88.9344649 C269.72279,89.0931273 271.335141,89.1134322 272.92995,89.096235 C274.524759,89.0790379 276.238888,88.2472916 277.714975,88.6551654 C279.191063,89.0630393 281.008154,92.7121402 282.51311,92.3527185 C284.018065,91.9932969 285.70315,86.3738163 287.298134,86.3796966 C288.893119,86.385577 290.884478,91.7230863 292.083159,92.3880013 C293.281841,93.0529163 295.280729,93.4008765 296.868184,93.280931 C298.455639,93.1609855 300.180152,91.8348014 301.666319,91.4429378 C303.152485,91.0510742 304.883261,90.5543112 306.451343,90.7525352 C308.019426,90.9507592 309.769142,92.2349981 311.236368,92.6527042 C312.703595,93.0704102 314.462324,93.7122321 316.021393,93.4770413 C317.580462,93.2418506 319.375891,91.6570211 320.819528,91.2028169 C322.263164,90.7486126 324.074365,90.7636709 325.604552,90.4598496 C327.13474,90.1560283 329.090387,89.9007156 330.389577,89.302667 C331.688767,88.7046184 333.734028,86.5127488 335.174602,86.0545242 C336.615176,85.5962996 338.377655,85.4867129 339.972737,85.5426985 C341.567818,85.598684 343.281275,86.064309 344.757761,86.4678628 C346.234248,86.8714166 347.958083,88.2816689 349.542786,88.158388 C351.127489,88.0351071 352.750794,85.8954431 354.327811,85.7233672 C355.904829,85.5512912 357.528754,87.1162306 359.125946,87.1179644 C360.723137,87.1196981 362.405902,86.0924959 363.91097,85.7375657 C365.416038,85.3826355 367.107095,84.7660894 368.695995,84.861123 C370.284896,84.9561565 372.305315,85.6326281 373.48102,86.3099588 C374.656725,86.9872895 376.724146,90.098426 378.266045,90.3744842 C379.807944,90.6505424 381.460971,90.5873386 383.05107,90.672576 C384.641168,90.7578133 386.245054,91.6040311 387.836094,91.6806795 C389.427135,91.7573279 391.041537,91.6618539 392.621119,91.5009549 C394.200701,91.3400559 395.952857,90.3473252 397.419254,89.9248407 C398.885651,89.5023562 400.62836,88.5720945 402.204279,88.7394162 C403.780197,88.906738 405.395454,90.8994788 406.989303,90.9409319 C408.583153,90.982385 410.178358,89.030937 411.774328,88.9883157 C413.370298,88.9456943 415.518855,89.9599432 416.572463,90.6900072 C417.626071,91.4200712 420.019877,95.0581751 421.357488,95.6242248 C422.695099,96.1902744 424.547504,94.740141 426.142512,94.7398566 C427.737521,94.7395722 429.330345,94.7371236 430.927537,94.7384762 C432.524729,94.7398288 434.507869,98.3027891 435.725672,98.9585106 C436.943474,99.6142321 438.961087,100.158837 440.510697,99.9029668 C442.060306,99.6470965 443.725276,97.5677822 445.295721,97.3783115 C446.866166,97.1888408 448.574238,98.3917957 450.080746,98.7483618 C451.587255,99.1049279 453.28173,99.6379012 454.878881,99.6458386 C456.476032,99.653776 458.289451,99.3295156 459.663906,98.7983743 C461.03836,98.2672331 462.868739,96.0952222 464.44893,95.9476095 C466.029122,95.7999968 467.637034,95.8163286 469.233955,95.796234 C470.830877,95.7761393 472.529777,95.7721798 474.03209,95.4079658 C475.534402,95.0437517 477.231233,92.821301 478.817114,92.7052413 C480.402996,92.5891817 482.489804,94.0007428 483.602139,94.7076004 C484.714475,95.4144579 486.877364,98.4363187 488.387164,98.7867356 C489.896965,99.1371525 491.641938,98.9785966 493.185299,99.2566595 C494.728659,99.5347224 496.800647,101.637867 497.970323,102.318299 C499.14,102.99873 501.252003,105.181916 502.755348,104.823808 C504.258693,104.4657 506.5345,100.782637 507.540373,100.038641 C508.546246,99.2946451 510.747018,97.8309303 512.338508,97.7390177 C513.929997,97.647105 515.681884,99.9332627 517.123532,99.4796624 C518.565181,99.0260622 520.329565,94.881309 521.908557,94.727897 C523.487549,94.574485 525.097327,94.8499583 526.693582,94.8872919 C528.289837,94.9246254 530.100787,95.3192641 531.491717,95.8359795 C532.882646,96.3526949 534.707657,98.2504925 536.276741,98.4450542 C537.845826,98.6396158 539.569033,96.6457037 541.061766,97.0226359 C542.5545,97.399568 544.294147,101.115315 545.846791,100.861601 C547.399435,100.607886 549.058981,95.5728573 550.644926,95.44401 C552.23087,95.3151627 553.849939,95.3943556 555.42995,95.2458598 C557.009962,95.0973639 558.623946,89.0414716 560.214975,88.9647151 C561.806004,88.8879586 564.202497,88.8886756 565,88.8877441 L565,103.916386 C564.491644,103.54653 561.77726,100.216912 560.214975,100.435032 C558.65269,100.653152 556.912754,104.859027 555.42995,105.252518 C553.947146,105.646008 552.112979,104.210048 550.644926,104.630086 C549.176872,105.050124 547.213615,109.248368 545.846791,109.789691 C544.479967,110.331013 542.638183,108.599494 541.061766,108.434345 C539.485349,108.269196 537.843724,108.989273 536.276741,108.787111 C534.709759,108.584948 533.060822,107.402197 531.491717,107.199676 C529.922611,106.997156 528.281869,107.667632 526.693582,107.552895 C525.105295,107.438158 523.466948,106.278861 521.908557,106.509306 C520.350166,106.739752 518.560167,108.507905 517.123532,108.968059 C515.686898,109.428212 513.88453,109.303254 512.338508,109.574591 C510.792486,109.845927 509.012868,110.237226 507.540373,110.650602 C506.067879,111.063978 504.339622,112.138343 502.755348,112.26415 C501.171075,112.389956 499.466823,111.780951 497.970323,111.410557 C496.473824,111.040163 494.701243,110.234059 493.185299,109.895497 C491.669354,109.556936 489.862431,109.680675 488.387164,109.271536 C486.911897,108.862396 485.171368,107.433736 483.602139,107.239705 C482.032911,107.045675 480.409016,106.96326 478.817114,107.031102 C477.225213,107.098943 475.628736,107.983387 474.03209,108.011902 C472.435444,108.040417 470.831148,107.982223 469.233955,107.983218 C467.636763,107.984213 466.034936,107.983877 464.44893,108.099148 C462.862925,108.21442 461.220565,109.576131 459.663906,109.81183 C458.107246,110.047529 456.475896,109.564427 454.878881,109.548182 C453.281865,109.531938 451.67743,109.543692 450.080746,109.51618 C448.484062,109.488668 446.884698,108.952986 445.295721,109.047427 C443.706745,109.141867 442.105576,110.071145 440.510697,110.084974 C438.915817,110.098803 437.25233,109.44697 435.725672,109.130407 C434.199013,108.813844 432.488743,108.326402 430.927537,108.097739 C429.366332,107.869076 427.724936,107.589768 426.142512,107.725902 C424.560088,107.862035 422.904273,109.184503 421.357488,108.921035 C419.810702,108.657567 417.935625,106.640688 416.572463,106.095811 C415.2093,105.550935 413.361683,105.213558 411.774328,105.093004 C410.186973,104.972449 408.574536,105.384188 406.989303,105.264099 C405.404071,105.14401 403.75429,104.520892 402.204279,104.266122 C400.654268,104.011352 399.005287,103.562759 397.419254,103.691103 C395.833221,103.819447 394.070071,104.597146 392.621119,105.04424 C391.172167,105.491335 389.405943,106.456051 387.836094,106.647773 C386.266246,106.839496 384.645822,106.863031 383.05107,106.843542 C381.456317,106.824053 379.78387,106.797911 378.266045,106.467725 C376.748219,106.137538 374.910994,105.230321 373.48102,104.761682 C372.051046,104.293042 370.270327,103.505421 368.695995,103.331371 C367.121663,103.157322 365.505972,103.151894 363.91097,103.154991 C362.315969,103.158089 360.693216,103.158711 359.125946,103.367622 C357.558675,103.576532 355.898267,104.599698 354.327811,104.797375 C352.757355,104.995053 351.026515,105.656134 349.542786,105.264146 C348.059058,104.872158 346.312986,101.064965 344.757761,100.825007 C343.202537,100.585048 341.567122,100.635128 339.972737,100.570579 C338.378351,100.506031 336.762554,99.7076416 335.174602,99.5907769 C333.586651,99.4739122 331.970614,99.6336818 330.389577,99.7770584 C328.80854,99.920435 327.092809,100.18076 325.604552,100.565275 C324.116295,100.94979 322.280161,101.81879 320.819528,102.249633 C319.358894,102.680477 317.609145,103.273162 316.021393,103.391271 C314.433641,103.509381 312.746791,103.353118 311.236368,103.008304 C309.725946,102.66349 308.046324,101.078941 306.451343,101.072553 C304.856363,101.066165 303.263423,101.074198 301.666319,101.085678 C300.069214,101.097159 298.420022,104.276882 296.868184,104.532813 C295.316346,104.788744 293.659324,104.67881 292.083159,104.845065 C290.506995,105.01132 288.492441,106.263874 287.298134,106.931227 C286.103828,107.598581 283.818397,109.597135 282.51311,110.192608 C281.207822,110.788081 279.179781,110.875301 277.714975,111.300117 C276.250169,111.724933 274.509918,112.822383 272.92995,112.971093 C271.349982,113.119803 269.575023,112.669354 268.144926,112.20087 C266.714829,111.732385 264.589262,110.484757 263.359901,109.836045 C262.13054,109.187332 259.56291,107.888772 258.561766,107.143565 C257.560622,106.398358 254.984635,103.364831 253.776741,102.705169 C252.568847,102.045507 250.141349,102.10086 248.991717,101.410572 C247.842084,100.720284 245.625385,96.8874422 244.206692,96.4019845 C242.787999,95.9165268 241.004167,98.0920893 239.408557,98.1405794 C237.812947,98.1890695 236.214499,96.6202134 234.623532,96.6975659 C233.032565,96.7749185 231.406375,98.406873 229.838508,98.6058737 C228.27064,98.8048743 226.46936,97.4234534 225.053483,97.9122389 C223.637605,98.4010244 221.739904,101.526092 220.255348,101.920573 C218.770792,102.315055 217.06307,100.524081 215.470323,100.466177 C213.877577,100.408273 212.260822,101.741681 210.685299,101.572657 C209.109775,101.403634 207.245985,100.000692 205.900274,99.4394931 C204.554562,98.8782942 202.536363,98.0429815 201.102139,97.5765916 C199.667916,97.1102017 197.862854,96.5885741 196.317114,96.3223544 C194.771375,96.0561347 193.124392,95.99168 191.53209,95.9283611 C189.939787,95.8650423 188.318873,95.5300886 186.747065,95.722788 C185.175257,95.9154875 183.370353,97.3002579 181.94893,97.7824526 C180.527508,98.2646472 178.666028,98.6145578 177.163906,98.9749007 C175.661784,99.3352436 173.90627,99.7681805 172.378881,100.078204 C170.851491,100.388228 169.189975,100.877444 167.593856,100.917394 C165.997737,100.957344 164.391674,100.815719 162.795721,100.858637 C161.199768,100.901555 159.57617,101.548475 158.010697,101.755908 C156.445223,101.963342 154.806411,102.271601 153.225672,102.126717 C151.644933,101.981834 150.016647,101.055066 148.440647,100.878761 C146.864647,100.702456 145.222233,100.79749 143.642512,100.637219 C142.062792,100.476949 140.400924,99.8000267 138.857488,99.5278568 C137.314052,99.2556869 135.666959,98.9220671 134.072463,98.9496342 C132.477967,98.9772012 130.823192,99.3969847 129.287438,99.6933122 C127.751684,99.9896398 126.084439,100.854485 124.489303,100.799221 C122.894168,100.743956 121.297686,99.4134919 119.704279,99.3647731 C118.110871,99.3160543 116.420586,100.144837 114.919254,100.506614 C113.417922,100.868391 111.729438,101.616594 110.134229,101.670874 C108.53902,101.725153 106.91973,100.971304 105.336094,100.829951 C103.752459,100.688598 102.110425,100.329727 100.55107,100.557188 C98.9917141,100.784648 97.2103658,102.196164 95.7660448,102.646211 C94.3217239,103.096258 92.5758424,103.598511 90.98102,103.539192 C89.3861976,103.479873 87.7782776,102.338546 86.1828855,102.286834 C84.5874934,102.235121 82.9916207,102.262577 81.3978607,102.219549 C79.8041007,102.176521 78.0479122,101.652687 76.6128359,101.190527 C75.1777596,100.728366 73.0347429,99.7996282 71.827811,99.1375539 C70.6208792,98.4754795 68.4935113,96.3582533 67.0296766,95.9320234 C65.5658418,95.5057935 63.4129602,95.5737311 62.2446517,94.8926049 C61.0763432,94.2114787 57.9717139,88.1684993 57.4596269,87.4501133 C56.9475399,86.7317272 54.1334492,81.9005566 52.6746021,81.4671695 C51.215755,81.0337825 49.4470302,80.7540125 47.8764676,80.9513028 C46.305905,81.1485932 44.6813652,84.1264261 43.0914428,84.2131737 C41.5015203,84.2999213 39.8644009,83.7288155 38.3064179,83.9605114 C36.748435,84.1922073 34.1762679,91.6574781 33.5213931,92.4152973 C32.8665183,93.1731164 30.2931014,94.8422286 28.7232586,95.0421216 C27.1534158,95.2420145 25.5178784,93.4907735 23.9382338,93.6410584 C22.3585892,93.7913433 20.1488786,95.2073865 19.153209,95.9526011 C18.1575394,96.6978158 15.7146678,101.364315 14.3681841,100.803817 C13.0217005,100.24332 11.1331989,92.1672351 9.57004965,91.9446953 C8.00690036,91.7221556 5.57251288,100.186443 4.78502483,99.4171594 C3.99753677,98.6478761 0.0558504629,82.7922183 0,82.5958816 L0,51 C0.0154077948,51.1058981 4.54969341,83.3418726 4.78502483,83.8875619 Z M4.78502483,83.8875619" id="freedom,american,friends" fill="#2D7DDC" sketch:type="MSShapeGroup"></path>
            <path d="M4.78502483,83.8818536 C5.0208835,84.4298798 8.28668143,72.5155308 9.57004965,73.1298034 C10.8534179,73.744076 13.4918586,87.7351672 14.3681841,88.5044788 C15.2445096,89.2737903 18.7000499,82.2694579 19.153209,81.5731979 C19.6063681,80.8769378 23.2363886,74.5668485 23.9382338,73.8004974 C24.640079,73.0341463 27.4581681,71.7509661 28.7232586,71.1235744 C29.9883491,70.4961827 32.6009625,69.8127223 33.5213931,69.048789 C34.4418237,68.2848557 37.3675885,63.9347222 38.3064179,63.1750151 C39.2452474,62.415308 41.6393797,61.7456207 43.0914428,61.3046403 C44.5435058,60.8636599 46.6636151,59.6078129 47.8764676,60.2686645 C49.0893201,60.9295161 52.0067171,65.7736769 52.6746021,66.5362342 C53.342487,67.2987915 56.7715924,70.4477703 57.4596269,71.2123877 C58.1476614,71.9770052 61.3256051,76.4085889 62.2446517,77.1714958 C63.1636984,77.9344027 65.8910733,78.457128 67.0296766,79.1565515 C68.1682798,79.855975 70.7053764,82.3542976 71.827811,83.0608732 C72.9502457,83.7674489 75.2756828,84.6232358 76.6128359,85.1915915 C77.9499889,85.7599473 79.8029661,87.1155782 81.3978607,87.1286144 C82.9927552,87.1416505 84.5857067,87.1378064 86.1828855,87.1424525 C87.7800643,87.1470986 89.4446051,88.1205597 90.98102,87.8247786 C92.5174349,87.5289974 94.4127412,85.8555316 95.7660448,85.3019498 C97.1193485,84.7483679 99.1291803,84.390285 100.55107,83.9100576 C101.972959,83.4298303 103.808381,82.3851198 105.336094,82.0697714 C106.863808,81.7544229 108.653598,81.9262978 110.134229,81.524189 C111.61486,81.1220802 113.688655,79.5793976 114.919254,78.9312191 C116.149853,78.2830406 118.138139,76.6892872 119.704279,76.4834738 C121.270418,76.2776603 122.892114,76.2758825 124.489303,76.2735518 C126.086493,76.2712211 127.693001,76.402126 129.287438,76.3379595 C130.881875,76.273793 132.481008,74.4452165 134.072463,74.3724252 C135.663917,74.299634 137.268233,74.3979839 138.857488,74.4905386 C140.446743,74.5830933 142.192054,76.278148 143.642512,76.7246883 C145.092971,77.1712285 146.881781,77.2021475 148.440647,77.4387385 C149.999513,77.6753295 151.631319,78.1478079 153.225672,78.1790971 C154.820025,78.2103862 156.416034,78.2405084 158.010697,78.2177821 C159.605359,78.1950557 161.232513,77.8364576 162.795721,77.6133619 C164.35893,77.3902663 166.163033,77.3221435 167.593856,76.8498923 C169.024678,76.3776412 171.185354,75.1226508 172.378881,74.4526266 C173.572408,73.7826023 175.980048,72.1527339 177.163906,71.4774411 C178.347763,70.8021483 180.826246,69.7001711 181.94893,68.9937028 C183.071615,68.2872345 185.406806,66.0136287 186.747065,65.4456305 C188.087324,64.8776323 189.937384,64.748085 191.53209,64.7693362 C193.126796,64.7905874 194.982478,65.0075741 196.317114,65.5781587 C197.651751,66.1487432 199.929345,68.1778558 201.102139,68.8607285 C202.274934,69.5436011 204.988844,70.3914721 205.900274,71.1566995 C206.811704,71.9219268 209.786273,76.1362742 210.685299,76.9019183 C211.584325,77.6675625 214.143031,78.7299301 215.470323,79.3069115 C216.797616,79.8838929 218.68885,81.2743182 220.255348,81.0620709 C221.821846,80.8498237 223.527623,77.6825562 225.053483,78.0018897 C226.579343,78.3212231 228.260419,82.8983778 229.838508,83.0565386 C231.416597,83.2146993 233.497442,79.6643866 234.623532,78.9610282 C235.749623,78.2576698 238.60977,77.8520488 239.408557,77.0790671 C240.207344,76.3060854 242.725628,70.0813494 244.206692,69.6799293 C245.687756,69.2785093 247.417913,74.6418556 248.991717,74.4650336 C250.56552,74.2882115 252.328404,69.0508198 253.776741,68.6047025 C255.225078,68.1585852 257.929723,70.7612795 258.561766,71.5172634 C259.193809,72.2732473 261.831477,79.7609677 263.359901,80.0747742 C264.888324,80.3885808 266.679685,79.9326311 268.144926,79.5105657 C269.610166,79.0885004 271.955312,69.6457481 272.92995,68.8931054 C273.904589,68.1404627 276.445905,71.4957077 277.714975,72.1203087 C278.984046,72.7449098 281.357333,74.2986371 282.51311,73.6072792 C283.668887,72.9159213 285.718822,66.5521938 287.298134,66.3997989 C288.877447,66.247404 291.583877,71.9679001 292.083159,72.6838222 C292.582442,73.3997443 295.430504,79.6587967 296.868184,80.1223195 C298.305864,80.5858424 300.070121,79.566638 301.666319,79.6052167 C303.262517,79.6437953 304.941662,80.2924688 306.451343,80.6398665 C307.961025,80.9872642 309.642418,81.8471606 311.236368,81.8074118 C312.830319,81.767663 314.472186,80.6651256 316.021393,80.4012155 C317.5706,80.1373053 319.234547,80.2191406 320.819528,80.0844757 C322.404508,79.9498107 324.276336,79.9555942 325.604552,79.3794084 C326.932769,78.8032226 329.256346,75.8498167 330.389577,75.1496246 C331.522809,74.4494326 333.681303,73.8475913 335.174602,73.4663412 C336.667901,73.085091 338.37871,72.635476 339.972737,72.7042395 C341.566764,72.773003 343.174748,74.0104726 344.757761,73.877094 C346.340775,73.7437154 348.182742,72.4450696 349.542786,71.8979038 C350.902831,71.3507381 352.869399,70.4623815 354.327811,70.0269227 C355.786223,69.5914639 357.535625,68.9365462 359.125946,69.0377355 C360.716266,69.1389247 362.342784,70.4346327 363.91097,70.6331451 C365.479156,70.8316574 367.136699,70.0207723 368.695995,70.2491814 C370.255291,70.4775904 372.040677,71.5781387 373.48102,72.0349864 C374.921363,72.4918341 376.71079,73.0439348 378.266045,73.2846083 C379.8213,73.5252818 381.462121,73.644183 383.05107,73.5492065 C384.640018,73.4542299 386.246047,72.7856872 387.836094,72.6997255 C389.426142,72.6137639 391.023952,73.0380096 392.621119,73.0318276 C394.218287,73.0256455 395.862457,72.4189393 397.419254,72.661672 C398.976051,72.9044048 400.876631,75.0996363 402.204279,74.5229599 C403.531926,73.9462834 405.867,69.2098322 406.989303,68.5048278 C408.111607,67.7998235 410.357395,67.8507127 411.774328,67.361536 C413.191262,66.8723593 414.985194,64.4398801 416.572463,64.5613657 C418.159731,64.6828514 419.770917,67.974363 421.357488,68.0863534 C422.944058,68.1983437 424.57327,67.6641073 426.142512,67.8587356 C427.711755,68.0533638 429.343225,73.741863 430.927537,73.8801383 C432.511849,74.0184136 434.281687,69.1350448 435.725672,68.6797801 C437.169657,68.2245155 439.030927,71.248355 440.510697,70.8486513 C441.990466,70.4489477 444.302248,66.84305 445.295721,66.0947939 C446.289195,65.3465377 448.502481,63.8080558 450.080746,63.6407587 C451.659011,63.4734616 453.965463,64.2259092 454.878881,64.9908595 C455.792299,65.7558097 458.414921,71.7589195 459.663906,72.3952359 C460.91289,73.0315523 462.871546,70.0278679 464.44893,69.8664832 C466.026315,69.7050985 467.660072,71.2307147 469.233955,71.4161088 C470.807839,71.6015029 472.443788,71.107648 474.03209,70.9926207 C475.620391,70.8775935 477.235679,70.5800677 478.817114,70.7218741 C480.39855,70.8636804 482.00859,71.804083 483.602139,71.8507608 C485.195688,71.8974387 486.79045,71.8790031 488.387164,71.9057707 C489.983878,71.9325384 491.847821,73.1589488 493.185299,72.5884771 C494.522776,72.0180054 496.465522,67.8312254 497.970323,67.4746086 C499.475125,67.1179918 501.577029,70.9987428 502.755348,70.3205091 C503.933667,69.6422754 506.212351,62.5448495 507.540373,61.9661422 C508.868395,61.387435 510.76894,65.9601146 512.338508,66.1616658 C513.908075,66.3632171 515.892725,62.558466 517.123532,63.206514 C518.35434,63.854562 520.668426,70.5583951 521.908557,71.2005123 C523.148689,71.8426295 525.396431,71.7072359 526.693582,72.3110846 C527.990733,72.9149333 530.385923,78.6919923 531.491717,79.405496 C532.59751,80.1189997 534.962731,80.0698893 536.276741,80.6580455 C537.590752,81.2462017 539.466761,85.1800514 541.061766,85.1823355 C542.656771,85.1846197 545.57018,81.256755 545.846791,80.6717502 C546.123402,80.0867454 550.389879,65.4658726 550.644926,64.899566 C550.899972,64.3332595 555.135128,59.9785646 555.42995,59.3792913 C555.724773,58.780018 559.732551,46.1560728 560.214975,45.4469478 C560.6974,44.7378228 564.338656,43.2904561 565,43 L565,88.97096 C564.202497,88.9718947 561.806004,88.9711753 560.214975,89.0481892 C558.623946,89.1252031 557.009962,95.2014063 555.42995,95.3504002 C553.849939,95.4993941 552.23087,95.4199356 550.644926,95.549215 C549.058981,95.6784945 547.399435,100.73041 545.846791,100.984976 C544.294147,101.239541 542.5545,97.5113318 541.061766,97.1331355 C539.569033,96.7549391 537.845826,98.7555386 536.276741,98.5603244 C534.707657,98.3651102 532.882646,96.4609476 531.491717,95.9424991 C530.100787,95.4240507 528.289837,95.0280885 526.693582,94.9906297 C525.097327,94.9531709 523.487549,94.6767738 521.908557,94.8307002 C520.329565,94.9846267 518.565181,99.1432811 517.123532,99.5984027 C515.681884,100.053524 513.929997,97.759699 512.338508,97.8519199 C510.747018,97.9441409 508.546246,99.4127648 507.540373,100.159256 C506.5345,100.905747 504.258693,104.601163 502.755348,104.960472 C501.252003,105.319781 499.14,103.129273 497.970323,102.44656 C496.800647,101.763846 494.728659,99.6536472 493.185299,99.3746518 C491.641938,99.0956563 489.896965,99.254744 488.387164,98.9031518 C486.877364,98.5515597 484.714475,95.5195638 483.602139,94.8103355 C482.489804,94.1011073 480.402996,92.6848119 478.817114,92.8012608 C477.231233,92.9177097 475.536804,95.1519812 474.03209,95.5130499 C472.527375,95.8741186 470.83088,95.8825895 469.233955,95.9026203 C467.63703,95.9226511 466.028912,95.9053622 464.44893,96.0545035 C462.868949,96.2036449 461.03836,98.381907 459.663906,98.9148296 C458.289451,99.4477522 456.476032,99.7731001 454.878881,99.7651361 C453.28173,99.7571721 451.587255,99.2224113 450.080746,98.8646493 C448.574238,98.5068873 446.866166,97.2998979 445.295721,97.490004 C443.725276,97.6801101 442.060306,99.7663982 440.510697,100.023127 C438.961087,100.279855 436.943474,99.7334237 435.725672,99.0755029 C434.507869,98.4175822 432.524729,94.8426721 430.927537,94.8413149 C429.330345,94.8399578 427.737521,94.8424146 426.142512,94.8427 C424.547504,94.8429853 422.695099,96.2979823 421.357488,95.7300342 C420.019877,95.1620861 417.626071,91.5117803 416.572463,90.7792678 C415.518855,90.0467552 413.370298,89.0291046 411.774328,89.0718689 C410.178358,89.1146332 408.583153,91.0726262 406.989303,91.031034 C405.395454,90.9894419 403.780197,88.9900176 402.204279,88.8221347 C400.62836,88.6542518 398.885651,89.5876335 397.419254,90.011535 C395.952857,90.4354365 394.200701,91.4314966 392.621119,91.5929353 C391.041537,91.7543739 389.427135,91.8501682 387.836094,91.7732627 C386.245054,91.6963572 384.641168,90.8473012 383.05107,90.7617781 C381.460971,90.6762549 379.807944,90.7396706 378.266045,90.4626865 C376.724146,90.1857025 374.656725,87.0641315 373.48102,86.3845291 C372.305315,85.7049267 370.284896,85.0261863 368.695995,84.930834 C367.107095,84.8354817 365.416038,85.4540956 363.91097,85.8102162 C362.405902,86.1663368 360.723137,87.1969842 359.125946,87.1952446 C357.528754,87.1935051 355.904829,85.623317 354.327811,85.7959701 C352.750794,85.9686232 351.127489,88.1154634 349.542786,88.2391578 C347.958083,88.3628522 346.234248,86.94787 344.757761,86.5429627 C343.281275,86.1380554 341.567818,85.6708688 339.972737,85.6146954 C338.377655,85.5585221 336.615176,85.6684763 335.174602,86.1282378 C333.734028,86.5879992 331.688767,88.7872202 330.389577,89.3872746 C329.090387,89.9873289 327.13474,90.2434979 325.604552,90.5483382 C324.074365,90.8531785 322.263164,90.8380698 320.819528,91.2937974 C319.375891,91.749525 317.580462,93.3396698 316.021393,93.5756493 C314.462324,93.8116289 312.703595,93.1676544 311.236368,92.7485474 C309.769142,92.3294404 308.019426,91.0408943 306.451343,90.8420055 C304.883261,90.6431166 303.152485,91.1415457 301.666319,91.5347236 C300.180152,91.9279014 298.455639,93.2585335 296.868184,93.3788813 C295.280729,93.4992291 293.281841,93.1501019 292.083159,92.4829568 C290.884478,91.8158117 288.893119,86.4604009 287.298134,86.4545008 C285.70315,86.4486007 284.018065,92.0869286 282.51311,92.4475557 C281.008154,92.8081828 279.191716,89.1458279 277.714975,88.7376013 C276.238234,88.3293748 274.524759,89.1628957 272.92995,89.1801502 C271.335141,89.1974047 269.722691,89.1774856 268.144926,89.0178375 C266.56716,88.8581894 264.146901,87.8243767 263.359901,87.0514765 C262.572901,86.2785763 259.223393,80.3604098 258.561766,79.5988822 C257.900139,78.8373547 255.277113,76.3807935 253.776741,76.0160642 C252.27637,75.651335 250.319199,77.8492925 248.991717,77.2724743 C247.664234,76.695656 245.605761,71.3480815 244.206692,71.8576821 C242.807623,72.3672827 240.670107,80.1528353 239.408557,80.7826793 C238.147007,81.4125232 236.097968,81.2850873 234.623532,81.6931989 C233.149097,82.1013105 231.433432,86.2108144 229.838508,86.2219876 C228.243583,86.2331609 226.647096,81.6871355 225.053483,81.7602419 C223.459869,81.8333483 221.787959,86.3699164 220.255348,86.6744369 C218.722738,86.9789573 216.689729,84.3302386 215.470323,83.6751801 C214.250918,83.0201216 211.564504,82.3013186 210.685299,81.5334558 C209.806093,80.765593 206.693859,76.0900466 205.900274,75.3170802 C205.106689,74.5441137 202.070951,72.9587644 201.102139,72.203545 C200.133328,71.4483256 197.470097,68.5394136 196.317114,67.8484155 C195.164132,67.1574173 193.122094,66.5544172 191.53209,66.468084 C189.942085,66.3817507 188.024075,66.709861 186.747065,67.3287859 C185.470054,67.9477107 182.932073,70.3646618 181.94893,71.116721 C180.965787,71.8687802 178.275915,73.9504197 177.163906,74.6597835 C176.051896,75.3691472 173.574957,76.5529596 172.378881,77.2215661 C171.182804,77.8901725 168.990835,79.4975403 167.593856,80.0094386 C166.196876,80.5213368 164.332974,80.4364942 162.795721,80.7303095 C161.258469,81.0241248 159.603519,81.7834264 158.010697,81.8405327 C156.417874,81.8976389 154.774235,81.3330008 153.225672,81.0734172 C151.677109,80.8138337 150.00255,80.4635651 148.440647,80.2363181 C146.878744,80.009071 145.111714,80.0992468 143.642512,79.6795133 C142.173311,79.2597799 140.381039,77.8201145 138.857488,77.5007468 C137.333936,77.1813791 135.623049,76.8223697 134.072463,77.0764006 C132.521876,77.3304316 130.864022,79.3607346 129.287438,79.5352093 C127.710854,79.709684 126.086302,79.372885 124.489303,79.3558394 C122.892304,79.3387939 121.274257,78.9682855 119.704279,79.1601619 C118.134301,79.3520383 116.205268,80.7379578 114.919254,81.348112 C113.633239,81.9582661 111.724372,83.5982222 110.134229,83.7007063 C108.544086,83.8031904 106.928986,83.48983 105.336094,83.5699507 C103.743203,83.6500713 101.961693,84.9409933 100.55107,85.434633 C99.1404464,85.9282728 97.1275961,86.3732258 95.7660448,86.9189362 C94.4044935,87.4646465 92.5206917,88.982261 90.98102,89.270313 C89.4413483,89.558365 87.7796418,88.7333949 86.1828855,88.7078276 C84.5861293,88.6822603 82.9882879,88.8771512 81.3978607,88.7945318 C79.8074335,88.7119123 77.9703265,87.7188434 76.6128359,87.169229 C75.2553452,86.6196146 72.9438252,85.6291552 71.827811,84.9198552 C70.7117968,84.2105552 68.1811061,81.7697817 67.0296766,81.0763355 C65.878247,80.3828893 63.1276572,79.9132852 62.2446517,79.1458101 C61.3616463,78.378335 58.091381,73.513477 57.4596269,72.7584087 C56.8278728,72.0033404 53.2997867,68.4622887 52.6746021,67.707751 C52.0494174,66.9532133 49.1633956,61.8020981 47.8764676,61.1904728 C46.5895396,60.5788476 44.6240565,61.7107067 43.0914428,62.0100237 C41.558829,62.3093407 39.2811393,62.7718965 38.3064179,63.5245209 C37.3316965,64.2771453 34.4546846,68.6375638 33.5213931,69.3994714 C32.5881016,70.161379 30.0024122,70.7251272 28.7232586,71.3424946 C27.444105,71.959862 24.6402926,73.2572685 23.9382338,74.0236446 C23.236175,74.7900206 19.6111553,81.0908198 19.153209,81.7892791 C18.6952626,82.4877384 15.2328942,89.390203 14.3681841,88.6198748 C13.503474,87.8495466 10.8486593,73.8394788 9.57004965,73.221715 C8.29144,72.6039513 5.02035624,84.5015272 4.78502483,83.9540077 C4.54969341,83.4064883 0.0154077948,51.0623974 0,50.9561442 C0.0154164585,50.9997286 4.54916616,83.3338275 4.78502483,83.8818536 Z M4.78502483,83.8818536" id="mrs,miss,league" fill="#F89614" sketch:type="MSShapeGroup"></path>
            <path d="M4.78502483,83.3281967 C5.12689462,83.9697936 8.38669017,65.4972574 9.57004965,64.8112897 C10.7534091,64.125322 12.8457827,78.1469484 14.3681841,77.8161801 C15.8905856,77.4854118 19.0122109,63.211398 19.153209,62.7675617 C19.2942071,62.3237255 23.618281,48.3175127 23.9382338,47.6914182 C24.2581866,47.0653238 27.2081893,44.3863309 28.7232586,44.0405641 C30.238328,43.6947973 32.3222711,45.6920668 33.5213931,45.0148239 C34.7205151,44.3375811 37.1823715,38.1259631 38.3064179,37.4127532 C39.4304644,36.6995433 41.7941852,38.33339 43.0914428,38.9426068 C44.3887003,39.5518236 46.7684589,41.1853574 47.8764676,41.9070301 C48.9844763,42.6287029 51.8678098,44.4019912 52.6746021,45.1847662 C53.4813943,45.9675412 56.9764403,50.4826787 57.4596269,51.2011466 C57.9428135,51.9196145 61.5972221,58.6470455 62.2446517,59.4148246 C62.8920814,60.1826037 65.8789283,61.8475568 67.0296766,62.5501541 C68.1804248,63.2527514 70.6556954,64.5733898 71.827811,65.2653031 C72.9999267,65.9572164 75.3528825,67.5699878 76.6128359,68.2068824 C77.8727892,68.843777 79.9056401,69.7189722 81.3978607,70.1028734 C82.8900812,70.4867747 84.5862443,70.6398527 86.1828855,70.668954 C87.7795267,70.6980553 89.3862712,70.6622056 90.98102,70.601004 C92.5757688,70.5398023 94.4028309,70.1705564 95.7660448,69.6195384 C97.1292588,69.0685204 99.3008533,67.3763226 100.55107,66.7327412 C101.801286,66.0891598 103.947471,65.22064 105.336094,64.6931066 C106.724718,64.1655731 108.746378,63.6211023 110.134229,63.0927393 C111.52208,62.5643764 113.665667,61.686651 114.919254,61.04536 C116.17284,60.404069 118.18832,58.5363694 119.704279,58.1970365 C121.220237,57.8577036 122.895781,58.8282283 124.489303,58.9031955 C126.082826,58.9781626 127.702648,58.8828356 129.287438,58.745402 C130.872228,58.6079685 132.48177,57.9723515 134.072463,57.8911383 C135.663156,57.809925 137.311317,57.9874376 138.857488,58.2568009 C140.403658,58.5261641 142.167456,59.1423033 143.642512,59.5583665 C145.117569,59.9744296 146.910973,60.644989 148.440647,60.9600145 C149.970321,61.2750401 151.630848,61.5499028 153.225672,61.5330801 C154.820495,61.5162574 156.465804,61.1318179 158.010697,60.8590665 C159.555589,60.5863151 161.204524,59.9392331 162.795721,59.8434846 C164.386918,59.7477361 166.085665,60.6435428 167.593856,60.2844041 C169.102046,59.9252654 171.169046,58.2349665 172.378881,57.5658161 C173.588715,56.8966656 175.969802,55.6695045 177.163906,54.9912795 C178.358009,54.3130544 180.802011,52.8346651 181.94893,52.130236 C183.095849,51.4258069 185.41154,49.6846349 186.747065,49.1051605 C188.082589,48.5256862 189.939486,47.9089392 191.53209,47.9695956 C193.124694,48.0302521 195.143647,48.7802228 196.317114,49.4696488 C197.490582,50.1590747 199.961057,52.8849381 201.102139,53.592112 C202.243221,54.2992858 204.929187,54.6412058 205.900274,55.405544 C206.87136,56.1698821 209.150555,60.8314998 210.685299,61.1296133 C212.220042,61.4277267 213.890848,61.3225266 215.470323,61.4760631 C217.049799,61.6295996 218.679879,63.9862055 220.255348,64.1675507 C221.830818,64.348896 223.85934,61.8932236 225.053483,62.5732728 C226.247625,63.2533219 228.421392,69.1210487 229.838508,69.6132178 C231.255623,70.105387 233.097469,66.2149434 234.623532,65.8969849 C236.149596,65.5790264 238.282594,67.675662 239.408557,66.9616413 C240.534521,66.2476206 243.089542,58.5194449 244.206692,57.8016037 C245.323841,57.0837625 247.413073,60.9447919 248.991717,60.7872359 C250.57036,60.62968 252.181838,56.8337693 253.776741,56.8464681 C255.371644,56.8591668 258.120985,60.1635912 258.561766,60.8634335 C259.002547,61.5632757 262.865413,71.3479321 263.359901,72.0717674 C263.854388,72.7956027 266.913246,75.5585303 268.144926,74.9027909 C269.376605,74.2470514 271.728706,67.6508886 272.92995,66.9767239 C274.131195,66.3025592 276.135031,69.3700459 277.714975,69.5318687 C279.294919,69.6936916 281.05103,70.4715078 282.51311,70.0358283 C283.975189,69.6001488 286.031398,61.2693174 287.298134,60.6372081 C288.564871,60.0050988 291.292787,64.4786013 292.083159,65.2603154 C292.873532,66.0420295 295.274383,70.0303418 296.868184,70.1024209 C298.461985,70.1744999 300.069668,70.1514592 301.666319,70.1803132 C303.262969,70.2091672 305.017006,71.5979885 306.451343,72.0685608 C307.885681,72.5391331 309.642965,73.2704448 311.236368,73.3200207 C312.829771,73.3695965 314.42477,72.3958802 316.021393,72.3663156 C317.618017,72.336751 319.277643,73.431196 320.819528,73.14494 C322.361412,72.8586841 324.751378,71.3715702 325.604552,70.5917318 C326.457727,69.8118934 329.654654,65.1768356 330.389577,64.3975008 C331.1245,63.6181661 334.016579,61.1424052 335.174602,60.4433566 C336.332625,59.744308 338.37784,58.6748005 339.972737,58.6154802 C341.567634,58.5561599 343.162763,60.0862923 344.757761,60.0824155 C346.35276,60.0785387 348.007288,58.8885335 349.542786,58.5922192 C351.078284,58.2959049 352.744501,58.0902919 354.327811,58.2356257 C355.911121,58.3809595 357.673868,59.0240781 359.125946,59.4740487 C360.578023,59.9240194 362.330162,61.0577185 363.91097,61.2045817 C365.491779,61.3514449 367.117966,60.2026895 368.695995,60.3631432 C370.274024,60.523597 372.086516,61.659336 373.48102,62.1776628 C374.875524,62.6959895 376.688079,63.7595113 378.266045,63.9202583 C379.844011,64.0810054 381.462856,64.2140764 383.05107,64.1122458 C384.639283,64.0104151 386.241224,62.7171931 387.836094,62.7026384 C389.430965,62.6880837 391.024393,62.7598214 392.621119,62.7330691 C394.217846,62.7063167 395.841688,60.3360531 397.419254,60.1635649 C398.996819,59.9910767 400.827446,62.2169257 402.204279,61.6796765 C403.581112,61.1424272 405.65043,57.0033003 406.989303,56.4292683 C408.328177,55.8552362 410.250532,57.9044102 411.774328,57.5765901 C413.298124,57.24877 415.123273,53.9076688 416.572463,54.3616425 C418.021653,54.8156162 419.763054,60.5360608 421.357488,60.5657229 C422.951922,60.595385 424.547813,60.5071487 426.142512,60.5289183 C427.737211,60.5506879 429.43446,65.4777364 430.927537,65.0912513 C432.420614,64.7047661 434.261616,58.465185 435.725672,58.0324106 C437.189727,57.5996362 438.941401,62.4399685 440.510697,62.2430612 C442.079992,62.0461539 444.397767,57.6071282 445.295721,56.8316087 C446.193675,56.0560893 448.486163,54.0411074 450.080746,53.9778717 C451.67533,53.9146361 454.178979,55.6820571 454.878881,56.4588722 C455.578782,57.2356873 458.195563,64.1836312 459.663906,64.606374 C461.132248,65.0291168 463.020623,59.6924493 464.44893,59.2141358 C465.877237,58.7358222 467.655279,61.2339459 469.233955,61.4015417 C470.812631,61.5691376 472.434897,61.2312378 474.03209,61.231746 C475.629283,61.2322542 477.242859,61.2340823 478.817114,61.411258 C480.39137,61.5884336 482.079272,62.7196235 483.602139,63.044527 C485.125007,63.3694306 486.78998,63.4492812 488.387164,63.4530271 C489.984348,63.4567729 491.589364,63.4527728 493.185299,63.4088348 C494.781233,63.3648968 496.38461,59.2938875 497.970323,59.1748818 C499.556037,59.055876 501.508821,63.3366747 502.755348,62.6906149 C504.001876,62.044555 506.281627,54.8546465 507.540373,54.2148423 C508.799119,53.5750382 510.750605,57.9552359 512.338508,57.836177 C513.92641,57.717118 515.738303,52.9787727 517.123532,53.5071864 C518.508762,54.0356001 520.522875,60.9588673 521.908557,61.4867965 C523.29424,62.0147258 525.175421,60.4426052 526.693582,60.7821471 C528.211743,61.1216891 530.618159,64.99172 531.491717,65.77108 C532.365274,66.55044 535.428562,68.5537051 536.276741,69.3338706 C537.124921,70.1140362 539.486316,74.4016583 541.061766,74.5737235 C542.637217,74.7457886 545.525732,71.0065187 545.846791,70.3790777 C546.16785,69.7516368 550.342302,56.4448989 550.644926,55.8313539 C550.947549,55.2178089 555.105417,51.5662455 555.42995,50.9368192 C555.754483,50.307393 559.872399,37.9124772 560.214975,37.2703991 C560.557551,36.628321 564.563944,33.3891585 565,33 L565,43.8568906 C564.338656,44.1510421 560.6974,45.6168236 560.214975,46.3349706 C559.732551,47.0531177 555.724773,59.8376759 555.42995,60.4445737 C555.135128,61.0514714 550.899972,65.4615705 550.644926,66.0350821 C550.389879,66.6085938 546.123402,81.4154861 545.846791,82.0079338 C545.57018,82.6003816 542.656771,86.57822 541.061766,86.5759068 C539.466761,86.5735937 537.590752,82.5896941 536.276741,81.9940548 C534.962731,81.3984156 532.59751,81.4481508 531.491717,80.7255692 C530.385923,80.0029877 527.990733,74.1524279 526.693582,73.5408965 C525.396431,72.9293651 523.148689,73.0664814 521.908557,72.4161946 C520.668426,71.7659078 518.35434,64.9767826 517.123532,64.3204896 C515.892725,63.6641966 513.908075,67.517355 512.338508,67.3132395 C510.76894,67.1091239 508.868395,62.4782667 507.540373,63.0643367 C506.212351,63.6504068 503.933667,70.8381324 502.755348,71.5249952 C501.577029,72.211858 499.475125,68.2817326 497.970323,68.6428867 C496.465522,69.0040407 494.528304,73.2490897 493.185299,73.8218183 C491.842294,74.3945468 489.983867,73.1578605 488.387164,73.1304259 C486.790461,73.1029913 485.195614,73.1231723 483.602139,73.0747161 C482.008665,73.02626 480.39855,72.0750772 478.817114,71.9314667 C477.235679,71.7878562 475.620391,72.0891673 474.03209,72.205658 C472.443788,72.3221487 470.807839,72.8222869 469.233955,72.6345341 C467.660072,72.4467813 466.026315,70.9017548 464.44893,71.0651927 C462.871546,71.2286307 460.91289,74.2705307 459.663906,73.6261185 C458.414921,72.9817063 455.792299,66.9022197 454.878881,66.1275371 C453.965463,65.3528544 451.659011,64.5908336 450.080746,64.7602592 C448.502481,64.9296848 446.289195,66.4877406 445.295721,67.2455167 C444.302248,68.0032928 441.990466,71.6550679 440.510697,72.0598569 C439.030927,72.4646459 437.169657,69.4023345 435.725672,69.8633914 C434.281687,70.3244484 432.511849,75.2699476 430.927537,75.1299131 C429.343225,74.9898785 427.711755,69.2290053 426.142512,69.0319008 C424.57327,68.8347963 422.944058,69.3758297 421.357488,69.2624146 C419.770917,69.1489994 418.159731,65.8156102 416.572463,65.692579 C414.985194,65.5695477 413.191262,68.032975 411.774328,68.5283754 C410.357395,69.0237759 408.111607,68.9722392 406.989303,69.6862132 C405.867,70.4001873 403.531926,75.1968998 402.204279,75.7809132 C400.876631,76.3649267 398.976051,74.1417655 397.419254,73.8959444 C395.862457,73.6501234 394.218287,74.2645487 392.621119,74.2708094 C391.023952,74.2770701 389.426142,73.8474268 387.836094,73.9344821 C386.246047,74.0215374 384.640018,74.698586 383.05107,74.7947709 C381.462121,74.8909558 379.8213,74.7705419 378.266045,74.5268063 C376.71079,74.2830707 374.921363,73.7239457 373.48102,73.2612856 C372.040677,72.7986255 370.255291,71.684075 368.695995,71.45276 C367.136699,71.2214449 365.479156,72.0426467 363.91097,71.8416088 C362.342784,71.6405708 360.716266,70.3283777 359.125946,70.225901 C357.535625,70.1234243 355.786223,70.7866744 354.327811,71.2276735 C352.869399,71.6686726 350.902831,72.5683316 349.542786,73.1224589 C348.182742,73.6765862 346.340775,74.9917545 344.757761,75.1268301 C343.174748,75.2619056 341.566764,74.0086919 339.972737,73.9390535 C338.37871,73.8694151 336.667901,74.3247505 335.174602,74.7108513 C333.681303,75.096952 331.522809,75.7064504 330.389577,76.4155509 C329.256346,77.1246514 326.933716,80.116462 325.604552,80.6991497 C324.275389,81.2818374 322.403557,81.271638 320.819528,81.4131875 C319.235498,81.554737 317.566738,81.4564887 316.021393,81.7339571 C314.476048,82.0114255 312.830319,83.1177899 311.236368,83.1580444 C309.642418,83.1982989 307.961025,82.3274621 306.451343,81.9756445 C304.941662,81.6238269 303.262517,80.9669005 301.666319,80.927831 C300.070121,80.8887615 298.305864,81.9209331 296.868184,81.4515129 C295.430504,80.9820927 292.582442,74.6434072 292.083159,73.9183764 C291.583877,73.1933457 288.877447,67.4000684 287.298134,67.5544023 C285.718822,67.7087361 283.668887,74.1534285 282.51311,74.8535825 C281.357333,75.5537364 278.984046,73.9802413 277.714975,73.3476935 C276.445905,72.7151457 273.904589,69.3172123 272.92995,70.0794308 C271.955312,70.8416493 269.610166,80.4045405 268.144926,80.8319758 C266.679685,81.259411 264.888324,81.7211617 263.359901,81.4033627 C261.831477,81.0855636 259.193809,73.5025778 258.561766,72.7369756 C257.929723,71.9713734 255.225078,69.3355654 253.776741,69.7873586 C252.328404,70.2391518 250.56552,75.5431782 248.991717,75.7222499 C247.417913,75.9013216 245.687756,70.4697381 244.206692,70.8762654 C242.725628,71.2827927 240.207344,77.5867253 239.408557,78.3695415 C238.60977,79.1523577 235.749623,79.5631394 234.623532,80.2754466 C233.497442,80.9877537 231.416597,84.5832366 229.838508,84.4230636 C228.260419,84.2628906 226.579343,79.6275013 225.053483,79.304105 C223.527623,78.9807087 221.821846,82.188273 220.255348,82.4032206 C218.68885,82.6181682 216.797616,81.2100527 215.470323,80.6257304 C214.143031,80.0414082 211.584325,78.9655242 210.685299,78.1901389 C209.786273,77.4147535 206.811704,73.1467876 205.900274,72.3718243 C204.988844,71.596861 202.274934,70.7382027 201.102139,70.046642 C199.929345,69.3550812 197.651751,67.3001525 196.317114,66.7223084 C194.982478,66.1444644 193.126796,65.924717 191.53209,65.9031954 C189.937384,65.8816739 188.087324,66.0128693 186.747065,66.5880941 C185.406806,67.1633189 183.071615,69.4658514 181.94893,70.1813081 C180.826246,70.8967647 178.347763,72.0127622 177.163906,72.6966467 C175.980048,73.3805312 173.572408,75.0311362 172.378881,75.7096851 C171.185354,76.388234 169.024678,77.6591914 167.593856,78.137451 C166.163033,78.6157105 164.35893,78.6847001 162.795721,78.9106341 C161.232513,79.1365681 159.605359,79.4997287 158.010697,79.5227442 C156.416034,79.5457597 154.820025,79.5152543 153.225672,79.483567 C151.631319,79.4518797 149.999513,78.97339 148.440647,78.7337889 C146.881781,78.4941878 145.092971,78.4628755 143.642512,78.0106539 C142.192054,77.5584324 140.446743,75.8418117 138.857488,75.7480794 C137.268233,75.6543472 135.663917,75.554746 134.072463,75.6284633 C132.481008,75.7021807 130.881887,77.5541688 129.287438,77.6190049 C127.692989,77.6838409 126.086493,77.5514193 124.489303,77.5537777 C122.892114,77.5561362 121.270336,77.5576493 119.704279,77.7663705 C118.138221,77.9750917 116.149853,79.588833 114.919254,80.2452582 C113.688655,80.9016834 111.61486,82.4639934 110.134229,82.8712181 C108.653598,83.2784429 106.863808,83.1043813 105.336094,83.4237419 C103.808381,83.7431025 101.972959,84.8011046 100.55107,85.2874419 C99.1291803,85.7737792 97.1193485,86.1364179 95.7660448,86.6970429 C94.4127412,87.2576679 92.5174349,88.952425 90.98102,89.2519693 C89.4446051,89.5515136 87.7800643,88.5656674 86.1828855,88.5609621 C84.5857067,88.5562568 82.9927552,88.5601499 81.3978607,88.5469479 C79.8029661,88.5337459 77.9499889,87.1608674 76.6128359,86.5852806 C75.2756828,86.0096937 72.9502457,85.1430188 71.827811,84.4274534 C70.7053764,83.711888 68.1682798,81.1817797 67.0296766,80.4734575 C65.8910733,79.7651353 63.1636984,79.2357594 62.2446517,78.4631461 C61.3256051,77.6905329 58.1476614,73.2025667 57.4596269,72.4282211 C56.7715924,71.6538755 53.342487,68.4648327 52.6746021,67.6925735 C52.0067171,66.9203143 49.0893201,62.0145217 47.8764676,61.3452622 C46.6636151,60.6760027 44.5435058,61.9478277 43.0914428,62.3944186 C41.6393797,62.8410096 39.2452474,63.5192172 38.3064179,64.28859 C37.3675885,65.0579628 34.4418237,69.4634424 33.5213931,70.2370952 C32.6009625,71.0107479 29.9883491,71.7029039 28.7232586,72.3382778 C27.4581681,72.9736517 24.640079,74.2731577 23.9382338,75.049259 C23.2363886,75.8253603 19.6063681,82.215732 19.153209,82.9208505 C18.7000499,83.625969 15.2445096,90.7194167 14.3681841,89.9403173 C13.4918586,89.1612179 10.8534179,74.9921197 9.57004965,74.3700318 C8.28668143,73.7479438 5.0208835,85.8138777 4.78502483,85.2588791 C4.54916616,84.7038804 0.0154164585,51.9583988 0,51.850764 L0,46.8509013 C0.0129717548,46.9497878 4.44315504,82.6865997 4.78502483,83.3281967 Z M4.78502483,83.3281967" id="rights,public,things" fill="#7A00FF" sketch:type="MSShapeGroup"></path>
            <path d="M4.78502483,82.8917143 C5.12803382,83.5229781 8.46336274,65.3795038 9.57004965,64.6697777 C10.6767366,63.9600517 12.908767,77.2194322 14.3681841,76.787483 C15.8276013,76.3555338 19.0160288,62.3011819 19.153209,61.8704025 C19.2903891,61.4396232 23.6449489,47.3303733 23.9382338,46.735177 C24.2315187,46.1399807 27.214075,42.799881 28.7232586,42.4488122 C30.2324422,42.0977435 32.2432186,43.9188324 33.5213931,43.3037133 C34.7995677,42.6885942 37.1782198,36.0463648 38.3064179,35.3472977 C39.434616,34.6482305 41.7076289,35.9828498 43.0914428,36.503608 C44.4752566,37.0243662 46.810361,38.7523719 47.8764676,39.4772068 C48.9425742,40.2020416 51.8591707,42.2507577 52.6746021,43.0198651 C53.4900335,43.7889726 56.9971716,47.8161294 57.4596269,48.5132697 C57.9220822,49.21041 61.6552346,56.7048731 62.2446517,57.4464875 C62.8340688,58.1881019 65.8358961,59.8859788 67.0296766,60.554466 C68.223457,61.2229532 70.6091489,62.1573858 71.827811,62.811643 C73.0464731,63.4659002 75.3613904,65.0668258 76.6128359,65.6984592 C77.8642813,66.3300927 79.9090022,67.2589183 81.3978607,67.6418686 C82.8867192,68.0248188 84.590776,68.0733156 86.1828855,68.1599781 C87.7749951,68.2466407 89.3868756,68.3372196 90.98102,68.2700634 C92.5751644,68.2029071 94.3720167,68.1842148 95.7660448,67.6743344 C97.160073,67.1644539 99.3517568,65.4333116 100.55107,64.769717 C101.750382,64.1061224 104.018648,62.9639049 105.336094,62.3791079 C106.653541,61.7943108 108.814373,61.099414 110.134229,60.5166089 C111.454085,59.9338039 113.756023,58.8308828 114.919254,58.1482001 C116.082485,57.4655173 118.209507,55.2729612 119.704279,54.9000918 C121.19905,54.5272225 122.926544,55.5375017 124.489303,55.7609605 C126.052062,55.9844193 127.691389,56.3110728 129.287438,56.2699031 C130.883487,56.2287334 132.477455,55.515828 134.072463,55.5154938 C135.667471,55.5151596 137.373312,55.8772074 138.857488,56.2678977 C140.341663,56.6585881 142.172428,57.6182832 143.642512,58.0346875 C145.112597,58.4510918 146.882923,58.7423669 148.440647,58.9812193 C149.998371,59.2200718 151.630928,59.5244623 153.225672,59.5046897 C154.820416,59.4849172 156.486395,59.1788079 158.010697,58.8625645 C159.534998,58.5463212 161.203705,57.6066667 162.795721,57.5192136 C164.387737,57.4317606 166.032022,57.9934957 167.593856,57.7671208 C169.155689,57.5407458 171.242627,55.3231948 172.378881,54.6277158 C173.515134,53.9322367 176.070821,52.622988 177.163906,51.9094752 C178.25699,51.1959623 180.889022,49.107779 181.94893,48.3808493 C183.008839,47.6539195 185.456333,45.9434654 186.747065,45.33762 C188.037797,44.7317747 189.941048,43.9570631 191.53209,43.8805335 C193.123131,43.8040038 195.084524,44.2334684 196.317114,44.8772973 C197.549704,45.5211261 200.074999,48.1422326 201.102139,48.8793362 C202.12928,49.6164397 204.918085,51.0041985 205.900274,51.7528724 C206.882463,52.5015463 209.223256,55.7572401 210.685299,56.181963 C212.147341,56.6066858 213.877925,54.4708666 215.470323,54.5329682 C217.062722,54.5950698 218.66375,56.4642832 220.255348,56.5551831 C221.846947,56.6460831 223.550822,54.7124338 225.053483,55.0754934 C226.556143,55.438553 228.244729,58.8207247 229.838508,58.8633715 C231.432286,58.9060182 233.037464,55.4462795 234.623532,55.3315713 C236.2096,55.2168631 238.080714,58.7473294 239.408557,58.1712428 C240.736401,57.5951561 242.860935,51.7207793 244.206692,51.1604373 C245.552449,50.6000953 247.396727,51.8298647 248.991717,51.8245826 C250.586706,51.8193006 252.270524,50.757834 253.776741,51.1101114 C255.282958,51.4623888 258.120474,53.3748613 258.561766,54.0628472 C259.003059,54.7508332 262.877019,65.3562371 263.359901,66.0628472 C263.842783,66.7694572 266.679903,68.8616631 268.144926,68.441299 C269.609948,68.020935 271.543663,63.7680535 272.92995,63.2498909 C274.316237,62.7317282 276.194044,63.6101506 277.714975,63.9382204 C279.235906,64.2662902 281.618918,66.6175553 282.51311,65.8538083 C283.407301,65.0900613 286.176581,56.47143 287.298134,55.7694815 C288.419688,55.0675331 291.23591,59.0974587 292.083159,59.8641888 C292.930408,60.6309189 295.271303,64.4085244 296.868184,64.4300363 C298.465065,64.4515482 300.069317,64.4195221 301.666319,64.4026636 C303.26332,64.3858051 305.443165,61.6143855 306.451343,60.8734493 C307.459522,60.1325131 310.147906,58.0846652 311.236368,57.3693917 C312.324831,56.6541183 315.05377,55.3364278 316.021393,54.5845777 C316.989016,53.8327275 320.601755,50.4486135 320.819528,49.9206475 C321.0373,49.3926816 325.33501,31.9460537 325.604552,31.3702771 C325.874095,30.7945005 329.454682,28.4834723 330.389577,27.7267324 C331.324473,26.9699925 333.577409,22.9605807 335.174602,22.9603778 C336.771795,22.9601748 338.375543,22.960444 339.972737,22.9607245 C341.56993,22.961005 344.447767,28.9389719 344.757761,29.5469485 C345.067756,30.1549251 348.714033,40.962356 349.542786,41.729992 C350.371539,42.4976281 352.86271,39.7584838 354.327811,40.1822524 C355.792912,40.6060209 357.730881,44.5528976 359.125946,45.0644233 C360.52101,45.575949 362.43773,46.2053314 363.91097,45.7973318 C365.38421,45.3893322 367.105138,40.9117753 368.695995,40.8334924 C370.286852,40.7552095 371.886109,40.7421218 373.48102,40.7540968 C375.075931,40.7660719 376.685083,41.7465537 378.266045,41.6030036 C379.847006,41.4594534 381.592919,40.3154633 383.05107,39.8851433 C384.50922,39.4548233 386.294416,39.054961 387.836094,38.7787527 C389.377773,38.5025444 391.033888,38.0494351 392.621119,38.1705663 C394.20835,38.2916974 396.161547,38.8833237 397.419254,39.5127679 C398.67696,40.142212 400.911742,43.5660648 402.204279,42.9637554 C403.496816,42.3614459 405.981833,35.7943417 406.989303,35.053219 C407.996774,34.3120963 410.326057,34.2280062 411.774328,33.7806433 C413.2226,33.3332805 414.980057,31.105987 416.572463,31.1900965 C418.164868,31.2742059 419.815017,34.004827 421.357488,34.2790468 C422.899959,34.5532665 424.710461,34.4044969 426.142512,34.8698387 C427.574564,35.3351804 429.408987,40.6720381 430.927537,41.0049279 C432.446088,41.3378178 434.246282,36.5545431 435.725672,36.9566818 C437.205062,37.3588205 439.052023,43.1656935 440.510697,43.5952685 C441.96937,44.0248435 443.983115,40.3615187 445.295721,39.7750339 C446.608328,39.188549 448.486975,38.9872958 450.080746,39.0584402 C451.674517,39.1295846 453.881513,39.5102949 454.878881,40.2553635 C455.876248,41.0004321 458.093671,46.7762887 459.663906,46.5862988 C461.23414,46.3963088 462.854636,39.1299392 464.44893,39.097439 C466.043225,39.0649389 467.636925,39.1490295 469.233955,39.1334745 C470.830985,39.1179195 472.446356,35.396819 474.03209,35.5266739 C475.617823,35.6565288 477.235747,40.0487839 478.817114,39.9073064 C480.398482,39.7658289 482.63986,35.4221366 483.602139,34.6704869 C484.564419,33.9188373 486.961697,32.9086104 488.387164,32.4320121 C489.812632,31.9554138 491.836027,32.0252906 493.185299,31.4681523 C494.53457,30.9110139 496.377325,28.5322367 497.970323,28.4777337 C499.563322,28.4232307 501.160704,28.3952282 502.755348,28.4184317 C504.349993,28.4416352 506.215512,29.1961311 507.540373,29.7747473 C508.865234,30.3533636 511.770892,33.3421623 512.338508,32.605764 C512.906123,31.8693657 516.827206,17.9643168 517.123532,17.3667415 C517.419859,16.7691662 520.936743,14.0563408 521.908557,13.3066893 C522.880371,12.5570378 525.464772,10.6325708 526.693582,9.9844614 C527.922392,9.33635197 530.155242,7.68582483 531.491717,8.25444563 C532.828191,8.82306643 536.049428,13.5143305 536.276741,14.0514402 C536.504055,14.5885499 540.82369,30.3196464 541.061766,30.8671572 C541.299842,31.4146681 544.619154,36.7088405 545.846791,36.06001 C547.074428,35.4111794 550.227403,26.4571579 550.644926,25.7811116 C551.062448,25.1050654 555.102764,21.1566583 555.42995,20.5362427 C555.757137,19.9158271 559.947469,8.20827248 560.214975,7.63423458 C560.482481,7.06019668 564.786943,0.339919711 565,0 L565,33.5261193 C564.563944,33.9085477 560.557551,37.0916929 560.214975,37.722667 C559.872399,38.3536412 555.754483,50.5342021 555.42995,51.1527432 C555.105417,51.7712843 550.947549,55.3596984 550.644926,55.9626329 C550.342302,56.5655674 546.16785,69.6421815 545.846791,70.2587717 C545.525732,70.8753618 542.637217,74.5499656 541.061766,74.3808761 C539.486316,74.2117866 537.124921,69.9983137 536.276741,69.2316401 C535.428562,68.4649666 532.365274,66.4963455 531.491717,65.7304636 C530.618159,64.9645816 528.211743,61.1614782 526.693582,60.8278082 C525.175421,60.4941382 523.29424,62.0390709 521.908557,61.5202716 C520.522875,61.0014722 518.508762,54.1979345 517.123532,53.678659 C515.738303,53.1593836 513.92641,57.815785 512.338508,57.932785 C510.750605,58.0497849 508.799119,53.7453374 507.540373,54.3740769 C506.281627,55.0028164 504.001876,62.0683843 502.755348,62.7032713 C501.508821,63.3381584 499.556037,59.1313909 497.970323,59.2483385 C496.38461,59.3652862 494.781233,63.3658924 493.185299,63.4090705 C491.589364,63.4522486 489.984348,63.4561796 488.387164,63.4524985 C486.78998,63.4488175 485.125007,63.3703478 483.602139,63.051063 C482.079272,62.7317783 480.391371,61.620149 478.817114,61.4460393 C477.242858,61.2719297 475.629283,61.2701312 474.03209,61.2696318 C472.434897,61.2691324 470.812631,61.6011899 469.233955,61.4364911 C467.655279,61.2717924 465.877237,58.816872 464.44893,59.2869137 C463.020623,59.7569554 461.132248,65.0013318 459.663906,64.5858998 C458.195563,64.1704678 455.578782,57.34268 454.878881,56.579299 C454.178979,55.815918 451.67533,54.0790623 450.080746,54.1412044 C448.486163,54.2033465 446.193675,56.1834817 445.295721,56.9455895 C444.397767,57.7076973 442.079992,62.0699555 440.510697,62.2634576 C438.941401,62.4569596 437.189727,57.7003349 435.725672,58.125625 C434.261616,58.5509151 432.420614,64.6825903 430.927537,65.0623917 C429.43446,65.442193 427.737211,60.6003518 426.142512,60.5789587 C424.547813,60.5575656 422.951922,60.6442759 421.357488,60.6151267 C419.763054,60.5859776 418.021653,54.9644611 416.572463,54.5183383 C415.123273,54.0722156 413.298124,57.3555365 411.774328,57.6776874 C410.250532,57.9998382 408.328177,55.9861022 406.989303,56.550207 C405.65043,57.1143119 403.581112,61.1818576 402.204279,61.7098159 C400.827446,62.2377741 398.996819,60.0504183 397.419254,60.2199236 C395.841688,60.3894288 394.217846,62.7187016 392.621119,62.7449913 C391.024393,62.771281 389.430965,62.7007839 387.836094,62.7150869 C386.241224,62.7293899 384.639283,64.0002472 383.05107,64.1003169 C381.462856,64.2003865 379.844011,64.0696168 378.266045,63.9116496 C376.688079,63.7536825 374.875524,62.708553 373.48102,62.1991901 C372.086516,61.6898272 370.274024,60.5737293 368.695995,60.4160505 C367.117966,60.2583716 365.491779,61.3872607 363.91097,61.2429373 C362.330162,61.0986139 360.578023,59.9845207 359.125946,59.5423317 C357.673868,59.1001428 355.911121,58.4681461 354.327811,58.3253257 C352.744501,58.1825053 351.078284,58.3845625 349.542786,58.6757524 C348.007288,58.9669423 346.35276,60.1363678 344.757761,60.1401776 C343.162763,60.1439873 341.567634,58.6403166 339.972737,58.6986111 C338.37784,58.7569056 336.332625,59.8079172 335.174602,60.4948766 C334.016579,61.181836 331.1245,63.6147817 330.389577,64.3806388 C329.654654,65.1464959 326.457727,69.7013961 325.604552,70.4677481 C324.751378,71.2341001 322.361412,72.6954962 320.819528,72.9768018 C319.277643,73.2581073 317.618017,72.1825894 316.021393,72.2116427 C314.42477,72.240696 312.829771,73.1975731 311.236368,73.1488546 C309.642965,73.1001361 307.885681,72.3814715 306.451343,71.9190372 C305.017006,71.4566028 303.262969,70.0917995 301.666319,70.0634445 C300.069668,70.0350895 298.461985,70.0577318 296.868184,69.9868992 C295.274383,69.9160667 292.873532,65.9967273 292.083159,65.228532 C291.292787,64.4603367 288.564871,60.0641979 287.298134,60.6853757 C286.031398,61.3065534 283.975189,69.4933133 282.51311,69.9214583 C281.05103,70.3496032 279.294919,69.5852384 277.714975,69.4262141 C276.135031,69.2671897 274.131195,66.2527515 272.92995,66.9152573 C271.728706,67.5777632 269.376605,74.0598535 268.144926,74.7042527 C266.913246,75.3486519 263.854388,72.6335058 263.359901,71.9221883 C262.865413,71.2108708 259.002547,61.5954281 258.561766,60.9076888 C258.120985,60.2199495 255.371644,56.972671 253.776741,56.9601919 C252.181838,56.9477127 250.57036,60.6779778 248.991717,60.832809 C247.413073,60.9876402 245.323841,57.1933826 244.206692,57.8988096 C243.089542,58.6042366 240.534521,66.198763 239.408557,66.9004356 C238.282594,67.6021081 236.149596,65.5417313 234.623532,65.8541911 C233.097469,66.166651 231.255623,69.989814 229.838508,69.5061563 C228.421392,69.0224987 226.247625,63.256247 225.053483,62.5879585 C223.85934,61.91967 221.830818,64.3328745 220.255348,64.1546654 C218.679879,63.9764563 217.049799,61.660605 215.470323,61.5097237 C213.890848,61.3588424 212.220042,61.4622233 210.685299,61.1692653 C209.150555,60.8763074 206.87136,56.2953066 205.900274,55.5441868 C204.929187,54.793067 202.243221,54.45706 201.102139,53.7621159 C199.961057,53.0671717 197.490582,50.3884488 196.317114,49.7109456 C195.143647,49.0334424 193.124694,48.2964416 191.53209,48.2368341 C189.939486,48.1772266 188.082589,48.7833077 186.747065,49.3527608 C185.41154,49.9222139 183.095849,51.6332744 181.94893,52.3255213 C180.802011,53.0177682 178.358009,54.4705906 177.163906,55.1370865 C175.969802,55.8035825 173.588715,57.0095213 172.378881,57.6670996 C171.169046,58.324678 169.102046,59.9857452 167.593856,60.338673 C166.085665,60.6916008 164.386918,59.811286 162.795721,59.9053787 C161.204524,59.9994713 159.555589,60.6353629 158.010697,60.9033973 C156.465804,61.1714318 154.820495,61.5492229 153.225672,61.5657547 C151.630848,61.5822865 149.970321,61.3121771 148.440647,61.0025996 C146.910973,60.6930221 145.117569,60.0340592 143.642512,59.6251913 C142.167456,59.2163235 140.403658,58.6108396 138.857488,58.3461347 C137.311317,58.0814298 135.663156,57.9069871 134.072463,57.9867958 C132.48177,58.0666045 130.872228,58.6912293 129.287438,58.8262861 C127.702648,58.9613429 126.082826,59.0550214 124.489303,58.9813507 C122.895781,58.90768 121.220237,57.9539393 119.704279,58.2874039 C118.18832,58.6208684 116.17284,60.4562685 114.919254,61.0864691 C113.665667,61.7166698 111.52208,62.579216 110.134229,63.0984415 C108.746378,63.6176671 106.724718,64.152722 105.336094,64.6711324 C103.947471,65.1895428 101.801286,66.0430426 100.55107,66.675494 C99.3008533,67.3079454 97.1292588,68.9708788 95.7660448,69.5123676 C94.4028309,70.0538564 92.5757688,70.4167167 90.98102,70.4768599 C89.3862712,70.5370032 87.7795267,70.5722329 86.1828855,70.5436349 C84.5862443,70.5150368 82.8900812,70.3646061 81.3978607,69.987344 C79.9056401,69.6100818 77.8727892,68.7500221 76.6128359,68.1241417 C75.3528825,67.4982614 72.9999267,65.913381 71.827811,65.2334335 C70.6556954,64.5534859 68.1804248,63.2556864 67.0296766,62.5652397 C65.8789283,61.8747929 62.8920814,60.2386331 62.2446517,59.4841318 C61.5972221,58.7296306 57.9428135,52.1185422 57.4596269,51.4124993 C56.9764403,50.7064564 53.4813943,46.2694028 52.6746021,45.5001649 C51.8678098,44.730927 48.9844763,42.9883055 47.8764676,42.2791132 C46.7684589,41.5699209 44.3887003,39.9646371 43.0914428,39.365956 C41.7941852,38.7672748 39.4304644,37.1616835 38.3064179,37.8625593 C37.1823715,38.5634351 34.7205151,44.6676308 33.5213931,45.3331615 C32.3222711,45.9986923 30.238328,44.0359632 28.7232586,44.3757504 C27.2081893,44.7155376 24.2581866,47.3482005 23.9382338,47.9634674 C23.618281,48.5787343 19.2942071,62.3427269 19.153209,62.7788875 C19.0122109,63.2150481 15.8905856,77.2422104 14.3681841,77.5672584 C12.8457827,77.8923065 10.7534091,64.113167 9.57004965,64.7872717 C8.38669017,65.4613764 5.12689462,83.6144527 4.78502483,82.9839514 C4.44315504,82.3534501 0.0129717548,47.2346626 0,47.1374862 C0.0129803653,47.1545451 4.44201583,82.2604505 4.78502483,82.8917143 Z M4.78502483,82.8917143" id="negro,white,negroes" fill="#31DCB5" sketch:type="MSShapeGroup"></path>
        </g>
    </g>
</svg>